<svg xmlns="http://www.w3.org/2000/svg" xml:space="preserve" viewBox="0 0 481.3 103.5">
  <path fill="#fe4c02" d="m261.7 46.3.9-.8-.9.8zM.1 46.3l12.2-7.2-12.3-7 .1 14.2zm5-5.4c1-1.2 2-2.5 3.1-3.7l-1.8-1.7c-1.2 1.3-2.3 2.5-3.3 3.9l2 1.5zm6.5-7.1c1.2-1.1 2.4-2.1 3.7-3.1l-1.5-1.9c-1.3 1-2.6 2.1-3.8 3.2l1.6 1.8zm7.7-5.9c1.3-.9 2.7-1.8 4.1-2.6l-1.3-2.1c-1.5.9-2.9 1.8-4.2 2.7l1.4 2zm8.3-5c1.4-.8 2.9-1.5 4.4-2.2l-1.1-2.2c-1.5.7-3 1.5-4.4 2.3l1.1 2.1zm8.8-4.3c1.5-.6 3-1.3 4.5-1.9l-.9-2.3c-1.6.6-3.1 1.3-4.6 1.9l1 2.3zm9-3.6c1.5-.5 3-1.1 4.6-1.6l-.8-2.3c-1.6.5-3.1 1-4.7 1.6l.9 2.3zm9.3-3.1c1.5-.5 3.1-.9 4.7-1.3l-.6-2.4c-1.6.4-3.2.9-4.8 1.3l.7 2.4zm9.5-2.5c1.5-.4 3.1-.7 4.8-1.1l-.5-2.4c-1.6.4-3.2.7-4.8 1.1l.5 2.4zm9.5-2.1 4.8-.9-.4-2.4c-1.6.3-3.3.6-4.9.9l.5 2.4zm9.7-1.7c1.6-.2 3.2-.5 4.9-.7L88 2.5c-1.6.2-3.3.5-4.9.7l.3 2.4zm9.7-1.3c1.6-.2 3.2-.4 4.9-.5l-.2-2.4c-1.7.2-3.3.3-4.9.5l.2 2.4zm9.8-.9c1.6-.1 3.3-.2 4.9-.3l-.2-2.4c-1.7.1-3.3.2-4.9.4l.2 2.3zm9.8-.7c1.6-.1 3.3-.1 4.9-.2l-.1-2.4c-1.7 0-3.3.1-4.9.2l.1 2.4zm9.8-.2h4.9V0h-4.9v2.5zm9.8 0c1.6 0 3.3.1 4.9.2l.1-2.4c-1.6-.1-3.3-.1-4.9-.2l-.1 2.4zm9.8.4c1.6.1 3.3.2 4.9.3l.2-2.4c-1.6-.1-3.3-.2-4.9-.3l-.2 2.4zm9.8.7c1.6.1 3.3.3 4.9.5l.3-2.4c-1.6-.2-3.3-.3-4.9-.5l-.3 2.4zm9.7 1.1c1.6.2 3.2.4 4.9.7l.4-2.4c-1.6-.2-3.3-.5-4.9-.7l-.4 2.4zm9.7 1.4c1.6.3 3.2.5 4.8.8l.4-2.4c-1.6-.3-3.2-.6-4.9-.9l-.3 2.5zm9.7 1.8c1.6.3 3.2.7 4.8 1l.5-2.4c-1.6-.4-3.2-.7-4.8-1l-.5 2.4zm9.5 2.1 4.8 1.2.6-2.4c-1.6-.4-3.2-.9-4.8-1.3l-.6 2.5zm9.5 2.6c1.6.5 3.1 1 4.7 1.5l.8-2.3c-1.6-.5-3.2-1-4.7-1.5l-.8 2.3zm9.3 3c1.5.5 3.1 1.1 4.6 1.7l.9-2.3c-1.5-.6-3.1-1.2-4.7-1.7l-.8 2.3zm9.1 3.5c1.5.6 3 1.3 4.5 1.9l1-2.2c-1.5-.7-3-1.3-4.6-2l-.9 2.3zm8.9 4.1c1.5.7 2.9 1.5 4.4 2.2l1.2-2.2c-1.5-.8-2.9-1.5-4.4-2.3l-1.2 2.3zm8.7 4.5c1.4.8 2.8 1.7 4.2 2.5l1.3-2.1c-1.4-.9-2.8-1.7-4.2-2.6l-1.3 2.2zm8.2 5.3c1.3.9 2.7 1.9 3.9 2.8l1.5-2c-1.3-1-2.7-2-4-2.9l-1.4 2.1zm7.8 5.8c1.3 1 2.5 2.1 3.7 3.2l1.7-1.8c-1.2-1.1-2.5-2.2-3.7-3.3l-1.7 1.9zm7.1 6.6c.6.6 1.1 1.2 1.7 1.7l1.8-1.7c-.6-.6-1.1-1.2-1.7-1.8l-1.8 1.8zm1.7 1.7c.6.6 1.1 1.2 1.7 1.8l1.8-1.7c-.6-.6-1.1-1.2-1.7-1.8l-1.8 1.7zm5.1 5.3c1.2 1.1 2.3 2.3 3.5 3.4l1.7-1.8c-1.2-1.1-2.3-2.2-3.5-3.3l-1.7 1.7zM273 59c1.2 1.1 2.5 2.1 3.7 3.2l1.6-1.9c-1.2-1-2.4-2.1-3.6-3.1L273 59zm7.5 6.3 3.9 3 1.5-2c-1.3-1-2.6-1.9-3.8-2.9l-1.6 1.9zm7.8 5.8c1.3.9 2.7 1.9 4 2.7l1.3-2c-1.3-.9-2.7-1.8-4-2.7l-1.3 2zm8.2 5.4c1.4.9 2.8 1.7 4.2 2.5l1.2-2.1c-1.4-.8-2.8-1.6-4.1-2.5l-1.3 2.1zm8.4 4.9c1.4.8 2.9 1.5 4.3 2.3l1.1-2.2c-1.4-.7-2.8-1.5-4.3-2.2l-1.1 2.1zm8.7 4.4c1.5.7 2.9 1.4 4.4 2l1-2.2c-1.5-.6-2.9-1.3-4.4-2l-1 2.2zm8.9 3.9 4.5 1.8.9-2.3-4.5-1.8-.9 2.3zm9.1 3.5c1.5.5 3.1 1 4.6 1.5l.7-2.3-4.5-1.5-.8 2.3zm9.3 3c1.6.5 3.1.9 4.7 1.3l.6-2.4c-1.5-.4-3.1-.8-4.6-1.3l-.7 2.4zm9.4 2.4c1.6.4 3.2.7 4.8 1l.5-2.4c-1.6-.3-3.1-.7-4.7-1l-.6 2.4zm9.5 2c1.6.3 3.2.6 4.8.8l.4-2.4c-1.6-.2-3.2-.5-4.8-.8l-.4 2.4zm9.7 1.4c1.6.2 3.2.4 4.8.5l.2-2.4c-1.6-.2-3.2-.3-4.8-.5l-.2 2.4zm9.7 1c1.6.1 3.2.2 4.9.3l.1-2.4-4.8-.3-.2 2.4zm9.7.5h4.9V101H389l-.1 2.5zm9.7-.1c1.6-.1 3.3-.1 4.9-.2l-.2-2.4c-1.6.1-3.2.2-4.8.2l.1 2.4zm9.7-.6c1.6-.1 3.2-.3 4.8-.5l-.3-2.4c-1.6.2-3.2.4-4.8.5l.3 2.4zm9.7-1.2c1.6-.2 3.2-.5 4.8-.8l-.4-2.4c-1.6.3-3.1.5-4.7.8l.3 2.4zm9.6-1.7c1.6-.3 3.2-.7 4.8-1.1l-.6-2.4c-1.5.4-3.1.7-4.7 1.1l.5 2.4zm9.5-2.3c1.6-.4 3.1-.9 4.7-1.4l-.7-2.3c-1.5.5-3 .9-4.6 1.4l.6 2.3zm9.3-3c1.6-.6 3.1-1.2 4.6-1.8l-.9-2.3c-1.5.6-3 1.2-4.5 1.7l.8 2.4zm9.1-3.7c1.5-.7 3-1.4 4.4-2.2l-1.1-2.2c-1.4.7-2.8 1.4-4.3 2.1l1 2.3zm8.6-4.6c1.4-.8 2.8-1.7 4.2-2.6l-1.4-2c-1.3.9-2.7 1.7-4 2.5l1.2 2.1zm8.2-5.4c1.3-1 2.6-2.1 3.8-3.1l-1.6-1.8c-1.2 1-2.4 2-3.7 3l1.5 1.9zm7.4-6.6c.6-.6 1.1-1.2 1.7-1.8l-1.8-1.6c-.5.6-1 1.2-1.6 1.7l1.7 1.7z"/>
</svg>
