<svg xmlns="http://www.w3.org/2000/svg" xml:space="preserve" viewBox="0 0 275.8 376.5">
  <path fill="#f04f23" d="M247.6.3c.9-.6 2.2-.3 2.8.6.6.9.3 2.2-.6 2.8L247.6.3zm-74.2 159.2-1.1-1.7 1.1 1.7zm-55 128 .3-2-.3 2zm157.4 89-22.5-5.1 15.7-17 6.8 22.1zm-9.6-6.7-5.4-5.4 2.8-2.8c2 2 3.8 3.8 5.4 5.5l-2.8 2.7zm-10.8-10.7c-1.8-1.7-3.6-3.4-5.6-5.2l2.7-3c2 1.8 3.9 3.5 5.7 5.2l-2.8 3zM244 348.8c-1.9-1.6-3.8-3.2-5.8-4.9l2.5-3.1c2.1 1.7 4 3.3 5.9 4.9l-2.6 3.1zm-11.8-9.6c-2-1.5-4-3.1-6.1-4.6l2.4-3.2c2.1 1.6 4.2 3.1 6.2 4.7l-2.5 3.1zm-12.4-9-6.3-4.2 2.2-3.4c2.2 1.4 4.3 2.9 6.4 4.3l-2.3 3.3zm-12.8-8.3c-2.1-1.3-4.3-2.6-6.6-3.9l2-3.5c2.3 1.3 4.5 2.6 6.7 3.9l-2.1 3.5zm-13.2-7.6c-2.2-1.2-4.5-2.3-6.8-3.5l1.8-3.6c2.3 1.2 4.6 2.3 6.9 3.5l-1.9 3.6zm-13.7-6.7c-2.3-1-4.6-2.1-7-3l1.5-3.7c2.4 1 4.8 2 7.1 3.1l-1.6 3.6zm-14.1-5.9c-2.4-.9-4.7-1.8-7.2-2.6l1.3-3.8c2.5.8 4.9 1.7 7.3 2.6l-1.4 3.8zm-14.4-4.9c-2.4-.7-4.9-1.4-7.3-2.1l1-3.9 7.5 2.1-1.2 3.9zm-14.7-3.9c-2.5-.6-4.9-1.1-7.4-1.6l.8-3.9c2.6.5 5.1 1 7.6 1.6l-1 3.9zm-15-2.9c-1.3-.2-2.5-.4-3.8-.6l.5-4 3.9.6-.6 4zm-3.8-.5c-1.4-.2-2.7-.4-4-.6l.6-3.9 3.9.6-.5 3.9zm-11.8-2c-2.7-.5-5.3-1.2-7.8-1.8l1-3.9c2.5.6 5 1.2 7.6 1.8l-.8 3.9zm-15.4-4c-2.6-.8-5.1-1.7-7.6-2.6l1.4-3.7c2.4.9 4.9 1.8 7.4 2.5l-1.2 3.8zm-15-5.7c-2.5-1.1-4.9-2.2-7.2-3.4l1.8-3.6c2.3 1.2 4.6 2.3 7 3.3l-1.6 3.7zm-14.3-7.3c-2.3-1.4-4.6-2.8-6.7-4.3l2.2-3.3c2.1 1.4 4.3 2.8 6.5 4.1l-2 3.5zm-13.2-9c-2.1-1.7-4.2-3.4-6.2-5.1l2.7-3c1.9 1.7 3.9 3.4 6 5l-2.5 3.1zm-12-10.6c-1.9-1.9-3.7-3.9-5.4-5.9l3-2.6c1.7 1.9 3.4 3.8 5.3 5.7l-2.9 2.8zm-10.5-12.1c-1.6-2.1-3.2-4.3-4.6-6.5l3.3-2.2c1.4 2.1 2.9 4.3 4.5 6.3l-3.2 2.4zM17 225.4c-1.3-2.3-2.6-4.7-3.8-7.1l3.6-1.8c1.1 2.3 2.3 4.6 3.6 6.9l-3.4 2zM10 211c-1-2.5-2-5-2.8-7.5l3.8-1.3c.8 2.4 1.8 4.9 2.7 7.3L10 211zm-5.2-15.1c-.7-2.6-1.3-5.2-1.9-7.8l3.9-.8c.5 2.5 1.1 5 1.8 7.5l-3.8 1.1zm-3.3-15.7c-.4-2.7-.7-5.3-.9-8l4-.4c.2 2.6.5 5.1.9 7.7l-4 .7zM0 164.3c-.1-2.7-.1-5.4 0-8l4 .1v7.8l-4 .1zm.6-16c.3-2.7.6-5.3 1-8l3.9.6c-.4 2.5-.7 5.1-1 7.7l-3.9-.3zm2.6-15.9c.6-2.6 1.3-5.2 2.1-7.8l3.8 1.2c-.7 2.5-1.4 5-2 7.5l-3.9-.9zm4.6-15.3c1-2.5 2-5 3.2-7.4l3.6 1.7c-1.1 2.3-2.1 4.7-3 7.1l-3.8-1.4zm6.9-14.5c1.4-2.3 2.8-4.6 4.3-6.8l3.3 2.3c-1.5 2.1-2.8 4.3-4.1 6.5l-3.5-2zM24 89.4c1.7-2.1 3.6-4 5.5-5.9l2.8 2.9c-1.8 1.8-3.6 3.7-5.2 5.6L24 89.4zm11.5-11.3c2.1-1.7 4.3-3.2 6.6-4.7l2.1 3.4C42 78.2 40 79.7 38 81.3l-2.5-3.2zm13.7-8.7c2.4-1.2 4.9-2.2 7.5-3.2L58 70c-2.4.9-4.8 1.9-7.1 3l-1.7-3.6zm15.2-5.5c2.6-.6 5.2-1.2 7.9-1.5l.6 4c-2.6.4-5.1.9-7.5 1.5l-1-4zm15.9-2.3c1.4-.1 2.7-.1 4.1-.1v4c-1.3 0-2.6 0-3.9.1l-.2-4zm4.1-.1c1.4 0 2.8 0 4.1.1l-.1 4c-1.3 0-2.7-.1-4-.1v-4zm12.3.5c2.8.2 5.5.6 8.1 1l-.6 4c-2.6-.4-5.2-.7-7.9-.9l.4-4.1zm16.2 2.5c2.7.6 5.4 1.3 7.9 2l-1.1 3.8c-2.5-.7-5-1.4-7.7-2l.9-3.8zm15.8 4.7c2.6 1 5.2 2.1 7.6 3.2l-1.7 3.6c-2.3-1.1-4.8-2.1-7.3-3.1l1.4-3.7zm14.9 6.9c2.4 1.4 4.8 2.8 7 4.4l-2.3 3.3c-2.1-1.5-4.4-2.9-6.7-4.2l2-3.5zm13.6 9.4c2.2 1.8 4.2 3.6 6.1 5.5l-2.8 2.9c-1.8-1.8-3.8-3.6-5.9-5.3l2.6-3.1zm11.7 11.6c1.8 2.2 3.5 4.3 5 6.6l-3.3 2.3c-1.4-2.1-3-4.2-4.8-6.3l3.1-2.6zm9.4 13.6c1.4 2.5 2.5 5 3.5 7.5l-3.7 1.5c-.9-2.4-2-4.7-3.3-7.1l3.5-1.9zm6 15.5c.7 2.8 1.1 5.6 1.3 8.3l-4 .3c-.2-2.5-.6-5-1.2-7.6l3.9-1zm1.1 16.8c-.4 3-1.2 5.7-2.4 8.3l-3.6-1.7c1-2.2 1.7-4.6 2.1-7.2l3.9.6zm-7.4 15.4c-1.1 1-2.2 1.9-3.5 2.8l-2.2-3.4c1-.7 2-1.4 2.9-2.3l2.8 2.9zm-3.5 2.8c-1 .7-2.2 1.4-3.3 2l-2-3.5c1.1-.6 2.2-1.3 3.2-1.9l2.1 3.4zm-10.2 5.6c-2.3 1.1-4.8 2-7.3 2.9l-1.3-3.8c2.3-.8 4.6-1.7 6.9-2.7l1.7 3.6zm-14.9 4.8c-2.7.5-5.3.7-8 .7l.1-4c2.3.1 4.7-.2 7.2-.6l.7 3.9zm-16.1-.7c-2.6-.9-5-2.2-7.2-4.2l2.6-3c1.8 1.5 3.7 2.6 5.9 3.4l-1.3 3.8zM121 160.3c-1.2-2.2-2.2-4.7-2.9-7.5l3.9-1c.7 2.6 1.5 4.7 2.6 6.6l-3.6 1.9zm-4.3-15.3-.3-3.9 4-.2c.1 1.3.2 2.5.3 3.7l-4 .4zm-.3-3.9c-.1-1.4 0-2.9.1-4.3l4 .4c-.1 1.3-.2 2.6-.1 3.8l-4 .1zm1.8-12.7c.8-2.6 1.8-5.2 3-7.8l3.6 1.7c-1.2 2.5-2.1 5-2.8 7.3l-3.8-1.2zm6.9-15.2c1.3-2.3 2.8-4.6 4.4-7l3.3 2.2c-1.5 2.3-3 4.5-4.2 6.8l-3.5-2zm9.2-13.7c1.6-2.1 3.3-4.3 5.1-6.5l3.1 2.5c-1.7 2.1-3.4 4.2-5 6.3l-3.2-2.3zm10.4-12.7c1.8-2 3.6-4 5.5-6.1l2.9 2.7c-1.9 2-3.7 4-5.4 6l-3-2.6zm11.1-12c1.9-1.9 3.8-3.9 5.8-5.8l2.8 2.9c-1.9 1.9-3.9 3.8-5.7 5.7l-2.9-2.8zm11.7-11.5c2-1.9 4-3.7 6-5.6l2.7 3c-2 1.8-4 3.7-5.9 5.5l-2.8-2.9zm12.1-11c2-1.8 4.1-3.6 6.2-5.4l2.6 3c-2 1.8-4.1 3.5-6.1 5.3l-2.7-2.9zM192 41.7c2.1-1.8 4.2-3.5 6.3-5.2l2.5 3.1c-2.1 1.7-4.2 3.4-6.3 5.2l-2.5-3.1zm12.6-10.3c2.2-1.7 4.3-3.4 6.4-5l2.4 3.2c-2.1 1.6-4.2 3.3-6.4 5l-2.4-3.2zm12.9-10c2.2-1.7 4.4-3.3 6.6-4.9l2.4 3.2c-2.1 1.6-4.3 3.2-6.5 4.8l-2.5-3.1zm13.2-9.6c2.3-1.7 4.6-3.2 6.7-4.7l2.3 3.3c-2.1 1.5-4.3 3-6.7 4.7l-2.3-3.3zm13.5-9.3c1.2-.8 2.3-1.5 3.4-2.2l2.1 3.4c-1.1.7-2.2 1.4-3.4 2.2l-2.1-3.4z"/>
</svg>
