<?xml version="1.0" encoding="utf-8"?>
<!-- Generator: Adobe Illustrator 27.5.0, SVG Export Plug-In . SVG Version: 6.00 Build 0)  -->
<svg version="1.1" id="Layer_1" xmlns="http://www.w3.org/2000/svg" xmlns:xlink="http://www.w3.org/1999/xlink" x="0px" y="0px"
	 viewBox="0 0 150 70" style="enable-background:new 0 0 150 70;" xml:space="preserve">
<style type="text/css">
	.st0{fill:#222222;}
	.st1{fill:#222222;stroke:#222222;stroke-width:1.1774;stroke-miterlimit:10;}
</style>
<g>
	<path class="st0" d="M91.9,37.2c0,4.4-3.4,7.7-8.5,7.7h-9.2c-0.9,0-1.7-0.8-1.7-1.7V29.4c0-0.5,0.2-0.9,0.5-1.2l2.5-2.5
		c1.1-1.1,2.9-0.3,2.9,1.2c0,0.9,0.8,1.7,1.7,1.7h1.6c2.1,0,3.5-1.1,3.5-2.9c0-1.8-1.2-2.9-3.6-2.9h-7.4c-0.9,0-1.7-0.8-1.7-1.7
		v-1.6c0-0.9,0.8-1.7,1.7-1.7h8.4c5.4,0,8.4,3.1,8.4,7.3c0,1.8-0.7,3.3-1.8,4.4c-0.7,0.7-0.6,1.9,0.2,2.5
		C90.9,33.1,91.9,34.9,91.9,37.2z M85.9,36.8c0-1.9-1.4-3.2-3.7-3.2h-2.1c-0.9,0-1.7,0.8-1.7,1.7v2.9c0,0.9,0.8,1.7,1.7,1.7h2.1
		C84.5,39.9,85.9,38.7,85.9,36.8z"/>
	<path class="st0" d="M95.6,17.7H115c0.9,0,1.7,0.8,1.7,1.7v2.4c0,0.9-0.8,1.7-1.7,1.7H110c-0.9,0-1.7,0.8-1.7,1.7v17.9
		c0,0.9-0.8,1.7-1.7,1.7H104c-0.9,0-1.7-0.8-1.7-1.7V30.3c0-0.5,0.2-0.9,0.5-1.2l2.6-2.6c1.1-1.1,0.3-2.9-1.2-2.9h-8.5
		c-0.9,0-1.7-0.8-1.7-1.7v-2.4C93.9,18.5,94.7,17.7,95.6,17.7z"/>
	<path class="st0" d="M125.5,19.5v17.9c0,0.9-0.8,1.7-1.7,1.7h-2.6c-0.9,0-1.7-0.8-1.7-1.7V19.5c0-0.9,0.8-1.7,1.7-1.7h2.6
		C124.7,17.8,125.5,18.5,125.5,19.5z M126.2,39.1H142c0.9,0,1.7,0.8,1.7,1.7v2.4c0,0.9-0.8,1.7-1.7,1.7h-18.1
		c-1.5,0-2.3-1.8-1.2-2.9l2.3-2.4C125.3,39.3,125.8,39.1,126.2,39.1z"/>
	<path class="st0" d="M78.7,56.8l-0.4-1.3h-3l-0.4,1.3h-2.4l2.8-8.8h2.8l2.9,8.8H78.7z M75.8,53.6h1.8l-0.9-3L75.8,53.6z"/>
	<path class="st0" d="M84.2,54.6h3.2v2.2h-6.1v-1.7l3.1-4.9h-3V48h5.9v1.7L84.2,54.6z"/>
	<path class="st0" d="M90.6,54.7H94v2.1h-5.6V48H94v2.1h-3.3v1.2h3v2.1h-3V54.7z"/>
	<path class="st0" d="M99.7,56.8L98.1,54h-0.8v2.8h-2.2V48h3.5c0.9,0,1.6,0.3,2.2,0.9c0.6,0.6,0.9,1.3,0.9,2.2c0,0.5-0.1,1-0.4,1.4
		c-0.3,0.4-0.6,0.8-1.1,1l1.8,3.2H99.7z M97.3,50.1v2h1.2c0.3,0,0.5-0.1,0.7-0.3c0.2-0.2,0.3-0.4,0.3-0.7c0-0.3-0.1-0.5-0.3-0.7
		c-0.2-0.2-0.4-0.3-0.7-0.3L97.3,50.1L97.3,50.1z"/>
	<path class="st0" d="M108.4,52.3c0.7,0.4,1.1,1.1,1.1,2c0,0.8-0.3,1.4-0.8,1.9c-0.5,0.5-1.2,0.7-2.1,0.7h-3.7V48h3.5
		c0.9,0,1.6,0.2,2.1,0.7c0.5,0.4,0.8,1.1,0.8,1.8C109.2,51.2,108.9,51.8,108.4,52.3z M106.3,50h-1.1v1.4h1.1c0.2,0,0.4-0.1,0.5-0.2
		c0.1-0.1,0.2-0.3,0.2-0.5c0-0.2-0.1-0.4-0.2-0.5C106.6,50.1,106.5,50,106.3,50z M106.5,54.8c0.2,0,0.4-0.1,0.6-0.2
		c0.1-0.1,0.2-0.3,0.2-0.5c0-0.2-0.1-0.4-0.2-0.5s-0.3-0.2-0.6-0.2h-1.4v1.5L106.5,54.8L106.5,54.8z"/>
	<path class="st0" d="M115.9,56.8l-0.4-1.3h-3l-0.4,1.3h-2.4l2.8-8.8h2.8l2.9,8.8H115.9z M113,53.6h1.8l-0.9-3L113,53.6z"/>
	<path class="st0" d="M118.8,48h2.2v8.8h-2.2V48z"/>
	<path class="st0" d="M124.8,57c-1.4,0-2.4-0.6-3-1.8l1.9-1.1c0.1,0.2,0.3,0.4,0.4,0.5c0.2,0.1,0.4,0.2,0.7,0.2c0.6,0,1-0.3,1-0.9
		V48h2.2v5.9c0,0.9-0.3,1.7-0.9,2.2C126.6,56.7,125.8,57,124.8,57z"/>
	<path class="st0" d="M134.5,56.8l-0.4-1.3h-3l-0.4,1.3h-2.4l2.8-8.8h2.8l2.9,8.8H134.5z M131.7,53.6h1.8l-0.9-3L131.7,53.6z"/>
	<path class="st0" d="M142.3,48h2.2v8.8h-1.7l-3.1-4.4v4.4h-2.2V48h1.7l3.1,4.4V48z"/>
	<path class="st0" d="M47.4,47.9c-0.1,0.1-0.3,0.2-0.4,0.3c-0.3,0.3,0.4-0.3-0.1,0.1c-0.2,0.2-0.4,0.3-0.7,0.5
		c-0.6,0.4-1.1,0.7-1.7,1c-0.3,0.2-0.6,0.3-0.9,0.5c-0.1,0.1-0.2,0.1-0.4,0.2c0.4-0.2,0,0,0,0c-0.6,0.2-1.3,0.5-2,0.6
		c-0.6,0.2-1.2,0.3-1.8,0.4c-0.7,0.1,0.3,0-0.1,0c-0.2,0-0.4,0-0.5,0.1c-0.4,0-0.7,0.1-1.1,0.1c-0.6,0-1.2,0-1.7,0
		c-0.3,0-0.5,0-0.8-0.1c-0.1,0-0.3,0-0.4-0.1c0.4,0,0.2,0-0.1,0c-1.1-0.2-2.1-0.4-3.2-0.8c-0.2-0.1-0.4-0.2-0.6-0.2
		c-0.5-0.2,0.3,0.2,0,0c-0.1-0.1-0.3-0.1-0.4-0.2c-0.5-0.2-1-0.5-1.5-0.8c-0.4-0.3-0.9-0.5-1.3-0.8c-0.2-0.1-0.4-0.3-0.5-0.4
		c-0.4-0.3,0.2,0.2,0,0c-0.1-0.1-0.3-0.2-0.4-0.3c-0.8-0.7-1.6-1.4-2.3-2.3c-0.1-0.1-0.6-0.7-0.2-0.3c-0.1-0.2-0.3-0.4-0.4-0.6
		c-0.3-0.5-0.6-0.9-0.9-1.4c-0.3-0.4-0.5-0.9-0.7-1.4c-0.1-0.1-0.4-0.9-0.1-0.3c-0.1-0.3-0.2-0.5-0.3-0.8c-0.4-1-0.6-2.1-0.8-3.2
		c0,0-0.1-0.6,0-0.2c0.1,0.4,0-0.2,0-0.2c0-0.2,0-0.5-0.1-0.7c0-0.6-0.1-1.2,0-1.8c0-0.5,0.1-1.1,0.1-1.6c0.1-0.6-0.1,0.4,0,0
		c0-0.1,0-0.3,0.1-0.4c0.1-0.3,0.1-0.6,0.2-0.9c0.1-0.5,0.2-1,0.4-1.5c0.1-0.3,0.2-0.5,0.3-0.8c0.1-0.2,0.4-0.9,0.1-0.4
		c0.4-1,0.9-1.9,1.5-2.8c0.1-0.2,0.3-0.4,0.4-0.6c0.1-0.1,0.6-0.7,0.2-0.3c0.4-0.4,0.7-0.9,1.1-1.3c0.4-0.4,0.8-0.8,1.3-1.2
		c0.2-0.2,0.5-0.4,0.7-0.6c-0.4,0.4,0.2-0.1,0.4-0.2c1-0.7,2-1.3,3.1-1.8c0,0,0.5-0.2,0.2-0.1c-0.3,0.1,0.2-0.1,0.3-0.1
		c0.3-0.1,0.6-0.2,0.9-0.3c0.5-0.2,1.1-0.3,1.7-0.5c0.3-0.1,0.6-0.1,0.9-0.2c0.1,0,0.3,0,0.4-0.1c-0.6,0.1,0,0,0.1,0
		c0.7-0.1,1.3-0.1,2-0.1c1.2,0,2.3-1,2.3-2.3c-0.1-1.2-1-2.3-2.3-2.3c-5.2,0-10.2,2-14,5.4c-3.8,3.4-6.1,8.1-6.7,13.1
		c-0.6,5,0.7,10.2,3.7,14.3c2.9,4.1,7.2,7.1,12.1,8.3c6.6,1.6,13.5-0.1,18.6-4.5c0.9-0.8,0.9-2.4,0-3.2C49.6,47,48.4,47,47.4,47.9z"
		/>
	<path class="st1" d="M36.8,15.6c8.1,0,15.3,6,16.9,14c0.1,0.9,0.3,1.9,0.3,2.8c0.1,1.9-0.2,3.8-0.9,5.6c-1.6,4.2-5.3,7.4-9.6,8.4
		C40.9,47,38.2,47,35.9,46c-4.8-1.9-7.9-7.3-6.8-12.4c1.4-6.8,10.8-9.9,15-3.7c2.3,3.5,1.2,8.4-3,9.7c-2.7,0.9-5.7-0.5-6.4-3.3
		c-0.9-2.8,1.5-5.8,4.5-5.2c2.2,0.4,3.4,3.3,1.8,5c-0.5,0.5-1.2,0.8-2,0.8v-1.1c0.9,0,1.6-0.8,1.6-1.7c-0.2-2.2-2.9-2.5-4.2-1
		c-1.3,1.5-0.4,4.1,1.4,4.8c0.9,0.4,1.9,0.4,2.9,0.1c3.2-1.1,3.9-4.8,2.1-7.4c-1.2-1.7-3.2-2.7-5.2-2.4c-3.7,0.2-6.7,3.6-6.6,7.2
		c0,4.6,3.5,8.5,8.1,9c7.3,0.6,13.2-5.6,12.4-12.9c-0.5-5-3.8-9.6-8.4-11.7c-1.9-0.9-4-1.3-6.1-1.3L36.8,15.6L36.8,15.6z"/>
	<path class="st0" d="M38.7,37.3c0.5,0,0.8-0.4,0.8-0.8c0-0.5-0.4-0.8-0.8-0.8c-0.5,0-0.8,0.4-0.8,0.8
		C37.9,36.9,38.2,37.3,38.7,37.3z"/>
	<path class="st0" d="M36.3,2.9l-3.2,12.8h7.2L37.2,2.9C37,2.5,36.4,2.5,36.3,2.9z"/>
	<path class="st0" d="M21,8l3.7,12.7l6.3-3.6l-9.2-9.5C21.4,7.2,20.8,7.5,21,8z"/>
	<path class="st0" d="M11.3,16.8l8,10.5l4.5-5.6l-12-5.6C11.4,15.9,11,16.4,11.3,16.8z"/>
	<path class="st0" d="M5.7,30.4l11.7,6.2l1.7-7H5.9C5.4,29.5,5.3,30.1,5.7,30.4z"/>
	<path class="st0" d="M5.9,45.1h13.2l-1.7-7L5.7,44.3C5.3,44.5,5.5,45.1,5.9,45.1z"/>
	<path class="st0" d="M13.6,57.6l11.7-6.2l-4.8-5.4L13.1,57C12.8,57.4,13.2,57.9,13.6,57.6z"/>
	<path class="st0" d="M26.5,65.6L34,54.8l-6.8-2.6l-1.6,13.1C25.6,65.8,26.3,66,26.5,65.6z"/>
	<path class="st0" d="M41.5,67l1.6-13.1L36,54.7l4.7,12.4C40.8,67.6,41.5,67.5,41.5,67z"/>
	<path class="st0" d="M55.5,60.5l-4.7-12.4l-5.9,4.1l9.9,8.8C55.2,61.3,55.7,60.9,55.5,60.5z"/>
	<path class="st0" d="M51.7,7.1l-9.2,9.5l6.3,3.6l3.7-12.7C52.6,7,52.1,6.7,51.7,7.1z"/>
	<path class="st0" d="M62.6,18.2l-12.7,3.7l3.6,6.3l9.5-9.2C63.4,18.6,63.1,18,62.6,18.2z"/>
	<path class="st0" d="M64.9,33.9l-12.8-3.2V38l12.8-3.2C65.4,34.7,65.4,34,64.9,33.9z"/>
</g>
</svg>
