<svg xmlns="http://www.w3.org/2000/svg" xml:space="preserve" id="Layer_1" x="0" y="0" version="1.1" viewBox="0 0 59.8 64.8">
  <style>
    .st0{fill:#222}
  </style>
  <path d="M41.9 45.3c-.1.1-.3.2-.4.3-.3.3.4-.3-.1.1-.2.2-.4.3-.7.5-.6.4-1.1.7-1.7 1-.3.2-.6.3-.9.5-.1.1-.2.1-.4.2.4-.2 0 0 0 0-.6.2-1.3.5-2 .6-.6.2-1.2.3-1.8.4-.7.1.3 0-.1 0-.2 0-.4 0-.5.1-.4 0-.7.1-1.1.1h-1.7c-.3 0-.5 0-.8-.1-.1 0-.3 0-.4-.1h-.1c-1.1-.2-2.1-.4-3.2-.8-.2-.1-.4-.2-.6-.2-.5-.2.3.2 0 0-.1-.1-.3-.1-.4-.2-.5-.2-1-.5-1.5-.8-.4-.3-.9-.5-1.3-.8-.2-.1-.4-.3-.5-.4-.4-.3.2.2 0 0-.1-.1-.3-.2-.4-.3-.8-.7-1.6-1.4-2.3-2.3-.1-.1-.6-.7-.2-.3-.1-.2-.3-.4-.4-.6-.3-.5-.6-.9-.9-1.4-.3-.4-.5-.9-.7-1.4-.1-.1-.4-.9-.1-.3-.1-.3-.2-.5-.3-.8-.4-1-.6-2.1-.8-3.2 0 0-.1-.6 0-.2.1.4 0-.2 0-.2 0-.2 0-.5-.1-.7 0-.6-.1-1.2 0-1.8 0-.5.1-1.1.1-1.6.1-.6-.1.4 0 0 0-.1 0-.3.1-.4.1-.3.1-.6.2-.9.1-.5.2-1 .4-1.5.1-.3.2-.5.3-.8.1-.2.4-.9.1-.4.4-1 .9-1.9 1.5-2.8.1-.2.3-.4.4-.6.1-.1.6-.7.2-.3.4-.4.7-.9 1.1-1.3s.8-.8 1.3-1.2c.2-.2.5-.4.7-.6-.4.4.2-.1.4-.2 1-.7 2-1.3 3.1-1.8 0 0 .5-.2.2-.1s.2-.1.3-.1l.9-.3c.5-.2 1.1-.3 1.7-.5.3-.1.6-.1.9-.2.1 0 .3 0 .4-.1-.6.1 0 0 .1 0 .7-.1 1.3-.1 2-.1 1.2 0 2.3-1 2.3-2.3-.1-1.2-1-2.3-2.3-2.3-5.2 0-10.2 2-14 5.4s-6.1 8.1-6.7 13.1.7 10.2 3.7 14.3c2.9 4.1 7.2 7.1 12.1 8.3 6.6 1.6 13.5-.1 18.6-4.5.9-.8.9-2.4 0-3.2-1.5-.8-2.7-.8-3.7.1z" class="st0"/>
  <path fill="#222" stroke="#222" stroke-miterlimit="10" stroke-width="1.1774" d="M31.3 13c8.1 0 15.3 6 16.9 14 .1.9.3 1.9.3 2.8.1 1.9-.2 3.8-.9 5.6-1.6 4.2-5.3 7.4-9.6 8.4-2.6.6-5.3.6-7.6-.4-4.8-1.9-7.9-7.3-6.8-12.4 1.4-6.8 10.8-9.9 15-3.7 2.3 3.5 1.2 8.4-3 9.7-2.7.9-5.7-.5-6.4-3.3-.9-2.8 1.5-5.8 4.5-5.2 2.2.4 3.4 3.3 1.8 5-.5.5-1.2.8-2 .8v-1.1c.9 0 1.6-.8 1.6-1.7-.2-2.2-2.9-2.5-4.2-1-1.3 1.5-.4 4.1 1.4 4.8.9.4 1.9.4 2.9.1 3.2-1.1 3.9-4.8 2.1-7.4-1.2-1.7-3.2-2.7-5.2-2.4-3.7.2-6.7 3.6-6.6 7.2 0 4.6 3.5 8.5 8.1 9 7.3.6 13.2-5.6 12.4-12.9-.5-5-3.8-9.6-8.4-11.7-1.9-.9-4-1.3-6.1-1.3l-.2-2.9z"/>
  <path d="M33.2 34.7c.5 0 .8-.4.8-.8 0-.5-.4-.8-.8-.8-.5 0-.8.4-.8.8s.3.8.8.8zM30.8.3l-3.2 12.8h7.2L31.7.3c-.2-.4-.8-.4-.9 0zM15.5 5.4l3.7 12.7 6.3-3.6L16.3 5c-.4-.4-1-.1-.8.4zm-9.7 8.8 8 10.5 4.5-5.6-12-5.6c-.4-.2-.8.3-.5.7zM.2 27.8 11.9 34l1.7-7H.4c-.5-.1-.6.5-.2.8zm.2 14.7h13.2l-1.7-7L.2 41.7c-.4.2-.2.8.2.8zM8.1 55l11.7-6.2-4.8-5.4-7.4 11c-.3.4.1.9.5.6zM21 63l7.5-10.8-6.8-2.6-1.6 13.1c0 .5.7.7.9.3zm15 1.4 1.6-13.1-7.1.8 4.7 12.4c.1.5.8.4.8-.1zm14-6.5-4.7-12.4-5.9 4.1 9.9 8.8c.4.3.9-.1.7-.5zM46.2 4.5 37 14l6.3 3.6L47 4.9c.1-.5-.4-.8-.8-.4zm10.9 11.1-12.7 3.7 3.6 6.3 9.5-9.2c.4-.4.1-1-.4-.8zm2.3 15.7-12.8-3.2v7.3l12.8-3.2c.5-.1.5-.8 0-.9z" class="st0"/>
</svg>
