<?xml version="1.0" encoding="utf-8"?>
<!-- Generator: Adobe Illustrator 27.5.0, SVG Export Plug-In . SVG Version: 6.00 Build 0)  -->
<svg version="1.1" id="Layer_1" xmlns="http://www.w3.org/2000/svg" xmlns:xlink="http://www.w3.org/1999/xlink" x="0px" y="0px"
	 viewBox="0 0 70 70" style="enable-background:new 0 0 70 70;" xml:space="preserve">
<style type="text/css">
	.st0{fill:#4CFF89;}
	.st1{fill:#4CFF89;stroke:#4CFF89;stroke-width:1.1774;stroke-miterlimit:10;}
</style>
<g>
	<path class="st0" d="M47,47.9c-0.1,0.1-0.3,0.2-0.4,0.3c-0.3,0.3,0.4-0.3-0.1,0.1c-0.2,0.2-0.4,0.3-0.7,0.5c-0.6,0.4-1.1,0.7-1.7,1
		c-0.3,0.2-0.6,0.3-0.9,0.5c-0.1,0.1-0.2,0.1-0.4,0.2c0.4-0.2,0,0,0,0c-0.6,0.2-1.3,0.5-2,0.6c-0.6,0.2-1.2,0.3-1.8,0.4
		c-0.7,0.1,0.3,0-0.1,0c-0.2,0-0.4,0-0.5,0.1c-0.4,0-0.7,0.1-1.1,0.1c-0.6,0-1.2,0-1.7,0c-0.3,0-0.5,0-0.8-0.1c-0.1,0-0.3,0-0.4-0.1
		c0.4,0,0.2,0-0.1,0c-1.1-0.2-2.1-0.4-3.2-0.8c-0.2-0.1-0.4-0.2-0.6-0.2c-0.5-0.2,0.3,0.2,0,0c-0.1-0.1-0.3-0.1-0.4-0.2
		c-0.5-0.2-1-0.5-1.5-0.8c-0.4-0.3-0.9-0.5-1.3-0.8c-0.2-0.1-0.4-0.3-0.5-0.4c-0.4-0.3,0.2,0.2,0,0c-0.1-0.1-0.3-0.2-0.4-0.3
		c-0.8-0.7-1.6-1.4-2.3-2.3c-0.1-0.1-0.6-0.7-0.2-0.3c-0.1-0.2-0.3-0.4-0.4-0.6c-0.3-0.5-0.6-0.9-0.9-1.4c-0.3-0.4-0.5-0.9-0.7-1.4
		c-0.1-0.1-0.4-0.9-0.1-0.3c-0.1-0.3-0.2-0.5-0.3-0.8c-0.4-1-0.6-2.1-0.8-3.2c0,0-0.1-0.6,0-0.2c0.1,0.4,0-0.2,0-0.2
		c0-0.2,0-0.5-0.1-0.7c0-0.6-0.1-1.2,0-1.8c0-0.5,0.1-1.1,0.1-1.6c0.1-0.6-0.1,0.4,0,0c0-0.1,0-0.3,0.1-0.4c0.1-0.3,0.1-0.6,0.2-0.9
		c0.1-0.5,0.2-1,0.4-1.5c0.1-0.3,0.2-0.5,0.3-0.8c0.1-0.2,0.4-0.9,0.1-0.4c0.4-1,0.9-1.9,1.5-2.8c0.1-0.2,0.3-0.4,0.4-0.6
		c0.1-0.1,0.6-0.7,0.2-0.3c0.4-0.4,0.7-0.9,1.1-1.3s0.8-0.8,1.3-1.2c0.2-0.2,0.5-0.4,0.7-0.6c-0.4,0.4,0.2-0.1,0.4-0.2
		c1-0.7,2-1.3,3.1-1.8c0,0,0.5-0.2,0.2-0.1s0.2-0.1,0.3-0.1c0.3-0.1,0.6-0.2,0.9-0.3c0.5-0.2,1.1-0.3,1.7-0.5
		c0.3-0.1,0.6-0.1,0.9-0.2c0.1,0,0.3,0,0.4-0.1c-0.6,0.1,0,0,0.1,0c0.7-0.1,1.3-0.1,2-0.1c1.2,0,2.3-1,2.3-2.3
		c-0.1-1.2-1-2.3-2.3-2.3c-5.2,0-10.2,2-14,5.4s-6.1,8.1-6.7,13.1S17,43.1,20,47.2c2.9,4.1,7.2,7.1,12.1,8.3
		c6.6,1.6,13.5-0.1,18.6-4.5c0.9-0.8,0.9-2.4,0-3.2C49.2,47,48,47,47,47.9z"/>
	<path class="st1" d="M36.4,15.6c8.1,0,15.3,6,16.9,14c0.1,0.9,0.3,1.9,0.3,2.8c0.1,1.9-0.2,3.8-0.9,5.6c-1.6,4.2-5.3,7.4-9.6,8.4
		C40.5,47,37.8,47,35.5,46c-4.8-1.9-7.9-7.3-6.8-12.4c1.4-6.8,10.8-9.9,15-3.7c2.3,3.5,1.2,8.4-3,9.7c-2.7,0.9-5.7-0.5-6.4-3.3
		c-0.9-2.8,1.5-5.8,4.5-5.2c2.2,0.4,3.4,3.3,1.8,5c-0.5,0.5-1.2,0.8-2,0.8v-1.1c0.9,0,1.6-0.8,1.6-1.7c-0.2-2.2-2.9-2.5-4.2-1
		s-0.4,4.1,1.4,4.8c0.9,0.4,1.9,0.4,2.9,0.1c3.2-1.1,3.9-4.8,2.1-7.4c-1.2-1.7-3.2-2.7-5.2-2.4c-3.7,0.2-6.7,3.6-6.6,7.2
		c0,4.6,3.5,8.5,8.1,9C46,45,51.9,38.8,51.1,31.5c-0.5-5-3.8-9.6-8.4-11.7c-1.9-0.9-4-1.3-6.1-1.3L36.4,15.6L36.4,15.6z"/>
	<path class="st0" d="M38.3,37.3c0.5,0,0.8-0.4,0.8-0.8c0-0.5-0.4-0.8-0.8-0.8c-0.5,0-0.8,0.4-0.8,0.8
		C37.5,36.9,37.8,37.3,38.3,37.3z"/>
	<path class="st0" d="M35.9,2.9l-3.2,12.8h7.2L36.8,2.9C36.6,2.5,36,2.5,35.9,2.9z"/>
	<path class="st0" d="M20.6,8l3.7,12.7l6.3-3.6l-9.2-9.5C21,7.2,20.4,7.5,20.6,8z"/>
	<path class="st0" d="M10.9,16.8l8,10.5l4.5-5.6l-12-5.6C11,15.9,10.6,16.4,10.9,16.8z"/>
	<path class="st0" d="M5.3,30.4L17,36.6l1.7-7H5.5C5,29.5,4.9,30.1,5.3,30.4z"/>
	<path class="st0" d="M5.5,45.1h13.2l-1.7-7L5.3,44.3C4.9,44.5,5.1,45.1,5.5,45.1z"/>
	<path class="st0" d="M13.2,57.6l11.7-6.2L20.1,46l-7.4,11C12.4,57.4,12.8,57.9,13.2,57.6z"/>
	<path class="st0" d="M26.1,65.6l7.5-10.8l-6.8-2.6l-1.6,13.1C25.2,65.8,25.9,66,26.1,65.6z"/>
	<path class="st0" d="M41.1,67l1.6-13.1l-7.1,0.8l4.7,12.4C40.4,67.6,41.1,67.5,41.1,67z"/>
	<path class="st0" d="M55.1,60.5l-4.7-12.4l-5.9,4.1l9.9,8.8C54.8,61.3,55.3,60.9,55.1,60.5z"/>
	<path class="st0" d="M51.3,7.1l-9.2,9.5l6.3,3.6l3.7-12.7C52.2,7,51.7,6.7,51.3,7.1z"/>
	<path class="st0" d="M62.2,18.2l-12.7,3.7l3.6,6.3l9.5-9.2C63,18.6,62.7,18,62.2,18.2z"/>
	<path class="st0" d="M64.5,33.9l-12.8-3.2V38l12.8-3.2C65,34.7,65,34,64.5,33.9z"/>
</g>
</svg>
