<svg xmlns="http://www.w3.org/2000/svg" width="90" height="67" viewBox="0 0 90 67" fill="none">
  <path
    d="M42.8834 0.30126C40.2579 1.29555 36.6479 4.01602 31.6331 8.78031C29.4671 10.8379 24.2292 16.2927 21.7087 19.1374C19.989 21.057 19.6214 21.5541 19.1226 22.5898L18.5581 23.7913L18.5187 25.7108C18.44 28.8041 18.6238 29.7984 19.2539 29.7984C19.372 29.7984 20.2122 29.1355 21.118 28.3346C27.9312 22.2308 34.7181 17.1903 39.1684 14.9394C41.912 13.5446 42.6997 13.296 44.485 13.296C45.8634 13.296 46.0997 13.3375 47.2418 13.7655C51.9021 15.5055 59.7917 21.0846 68.1146 28.5417C69.4798 29.7708 69.8999 29.9779 70.1625 29.6051C70.4119 29.246 70.5169 27.8374 70.4513 25.697C70.3988 23.8327 70.3988 23.7774 69.913 22.7279C69.2435 21.2779 68.6791 20.5874 64.045 15.6574C57.2844 8.46269 52.7816 4.34745 48.909 1.8065C46.231 0.0388794 44.6032 -0.361597 42.8834 0.30126Z"
    fill="black" />
  <path
    d="M43.4086 19.317C40.1136 20.1317 33.7861 25.4346 25.1744 34.5903C18.4663 41.716 18.4137 41.7989 18.5188 46.1627C18.5975 49.5046 18.7682 49.6289 20.7898 47.806C27.2748 41.9508 34.3506 36.6617 38.8402 34.3003C41.6364 32.8365 42.7391 32.4913 44.5507 32.4913C45.7715 32.5051 46.1522 32.5603 47.0449 32.8779C51.6133 34.5351 58.794 39.5479 67.2876 47.0189C68.5741 48.1513 69.6505 48.9937 69.808 48.9937C70.2938 48.9937 70.3988 48.4965 70.4513 46.1627C70.5301 43.0556 70.32 42.2408 68.9548 40.2937C68.6134 39.7965 66.0798 37.0346 63.3362 34.1346C57.1137 27.5751 53.543 24.2608 49.9592 21.7337C46.848 19.5241 45.1152 18.8889 43.4086 19.317Z"
    fill="black" />
  <path
    d="M67.1301 54.2965C65.9749 54.8213 66.3293 55.9398 67.7077 56.1332C68.154 56.2022 68.4035 56.1332 69.0992 55.7603L69.9394 55.3184L70.5695 55.7051C71.3178 56.1608 72.263 56.2298 72.9456 55.857C73.3 55.6498 73.3657 55.5394 73.3657 55.1251C73.3657 54.6832 73.3132 54.6141 72.8143 54.3794C72.0398 54.0065 71.5935 54.0341 70.6877 54.5036C69.8869 54.9317 69.8081 54.9317 68.9679 54.4208C68.3772 54.0755 67.7208 54.0203 67.1301 54.2965Z"
    fill="black" />
  <path
    d="M3.82913 57.4313C1.72872 57.818 0.127163 59.5165 0.00901478 61.5189C-0.135388 63.7837 1.46617 65.6341 4.01291 66.1313C4.48551 66.228 5.8639 66.2556 7.59673 66.2141C10.5898 66.1589 11.1412 66.0484 12.1914 65.358C12.7296 64.9989 13.4122 64.2256 13.701 63.6318L13.9111 63.2175H12.2701H10.6423L10.301 63.7008C9.72339 64.488 8.79134 64.9022 7.38669 64.9851C5.87702 65.068 4.91871 64.7918 4.15732 64.0737C2.87082 62.8584 2.77893 61.008 3.94728 59.6822C4.69555 58.8261 5.37818 58.5913 7.07163 58.5913C8.69944 58.5913 9.34269 58.8399 10.1829 59.7513L10.708 60.3313L12.3095 60.2899L13.9242 60.2484L13.4779 59.5718C12.9659 58.7846 11.9026 57.9561 10.9443 57.6108C10.406 57.4175 9.74965 57.3622 7.39982 57.3346C5.81139 57.3208 4.1967 57.3622 3.82913 57.4313Z"
    fill="black" />
  <path
    d="M52.0465 57.5694C51.7708 57.6385 51.1932 57.9008 50.76 58.1356C49.0141 59.1161 48.1739 61.1185 48.7515 62.9275C49.106 64.0875 49.828 64.9161 51.0094 65.5237L52.0203 66.0485H55.6303H59.2535L59.9887 65.6894C60.8288 65.2751 61.7084 64.488 62.1416 63.7699C62.5223 63.1208 62.7848 61.947 62.6798 61.2704C62.4698 59.848 61.2883 58.398 59.8705 57.818C59.1748 57.5142 58.9122 57.5004 55.8404 57.4589C54.0419 57.4451 52.3353 57.5004 52.0465 57.5694ZM58.0458 59.1161C59.2273 59.848 59.7786 61.2566 59.3979 62.5685C59.1354 63.5075 58.6497 64.1013 57.7833 64.557C57.0875 64.9023 56.8906 64.9437 55.6435 64.9437C54.4882 64.9437 54.1601 64.8885 53.6087 64.6261C52.821 64.2394 52.4141 63.8666 52.0859 63.1899C51.2983 61.5742 51.889 59.7651 53.4643 58.978C54.0813 58.6742 54.2651 58.6466 55.7747 58.688C57.3107 58.7294 57.4551 58.757 58.0458 59.1161Z"
    fill="black" />
  <path
    d="M15.6964 57.6524C15.6439 57.6939 15.6045 59.5582 15.6045 61.7815C15.6045 65.6482 15.6176 65.8415 15.8539 65.9796C16.1427 66.1315 17.4949 66.1591 18.2694 66.0348L18.7551 65.9382V61.7539V57.5558H17.2717C16.4447 57.5558 15.7358 57.5972 15.6964 57.6524Z"
    fill="black" />
  <path
    d="M20.5404 57.7768C20.5011 57.9011 20.4617 58.1635 20.4617 58.3844C20.4617 59.1992 20.4748 59.213 22.2208 59.213C23.5598 59.213 23.8748 59.2544 24.2293 59.4892C25.0694 60.0139 25.1219 60.2211 25.1613 63.2039C25.2007 65.0682 25.2532 65.9382 25.3582 66.0211C25.5289 66.1316 27.4455 66.1316 28.01 66.0073L28.3382 65.952L28.3644 62.6101L28.4038 59.282L30.6355 59.2406C33.0378 59.1992 33.0641 59.1992 33.0641 58.4258C33.0641 57.4868 33.5367 57.5559 26.7629 57.5559C21.2887 57.5559 20.6061 57.5835 20.5404 57.7768Z"
    fill="black" />
  <path
    d="M35.4665 57.8182C35.2433 57.9701 34.9808 58.2187 34.9152 58.3706C34.8233 58.5363 34.7708 59.9725 34.7708 62.2925V65.952L35.7947 66.0349C36.3461 66.0901 36.9237 66.0901 37.0681 66.0625C37.2125 66.0349 37.4619 65.9935 37.6326 65.9935C37.9082 65.9797 37.9214 65.9382 37.9214 64.4468V62.9001L39.6673 62.983C40.7438 63.0382 41.6365 63.1487 42.0172 63.2868C42.8311 63.5906 43.6187 64.433 43.8944 65.2892C44.0257 65.7173 44.2095 65.9935 44.367 66.0487C44.7083 66.173 47.1238 66.0763 47.1894 65.952C47.2288 65.8968 47.1763 65.593 47.0975 65.2892C46.9006 64.5987 46.0736 63.5768 45.4172 63.2177L44.9446 62.9692L45.4303 62.7482C46.5855 62.2373 47.3601 61.0082 47.2025 59.9587C47.0844 59.213 46.5462 58.4535 45.8373 58.0116L45.2071 57.6249L40.5469 57.5835C36.1098 57.5558 35.8735 57.5558 35.4665 57.8182ZM43.7369 59.4892C44.1438 59.9587 44.1832 60.2901 43.8944 60.8563C43.6056 61.4639 43.1199 61.5606 40.3893 61.5606H37.9082L37.9476 60.4282C37.987 59.4339 38.0264 59.2682 38.2627 59.1439C38.4202 59.0611 39.4967 59.0197 40.9538 59.0335L43.3693 59.0749L43.7369 59.4892Z"
    fill="black" />
  <path
    d="M64.2684 57.652C64.2159 57.6934 64.1765 59.2539 64.1765 61.1044C64.1765 64.7639 64.229 65.1229 64.8985 65.6753C65.2661 65.9791 65.3055 65.9791 70.2677 65.9515L75.2693 65.9101L75.3087 65.1782L75.348 64.4601H71.4098H67.4715L67.3928 64.0044C67.3402 63.7558 67.3271 63.3001 67.3534 63.0101L67.3928 62.4577L70.6484 62.4163L73.8909 62.3887V61.6982V61.0077L70.6484 60.9801L67.3928 60.9387L67.3534 60.2896C67.2746 59.0053 67.0646 59.0744 71.4754 59.0744H75.348L75.3087 58.3425L75.2693 57.6244L69.8082 57.5829C66.8151 57.5691 64.3209 57.5968 64.2684 57.652Z"
    fill="black" />
  <path
    d="M77.0415 61.7534V65.9791H78.6168H80.1921V62.6096C80.1921 60.4139 80.2446 59.1987 80.3234 59.1434C80.4022 59.0882 81.3211 59.0606 82.3713 59.0606C84.3929 59.0882 84.7211 59.1572 85.2725 59.7925C85.8763 60.4691 85.9682 60.9801 85.9682 63.5625V65.9791H87.491H89.0138L88.9613 63.3139C88.9219 60.8696 88.8957 60.621 88.62 60.0825C88.2262 59.2815 87.3597 58.4529 86.4933 57.9972L85.7713 57.6244L81.413 57.5829L77.0415 57.5415V61.7534Z"
    fill="black" />
</svg>