<svg xmlns="http://www.w3.org/2000/svg" width="151" height="84" viewBox="0 0 151 84" fill="none">
  <path
    d="M69.8942 4.66666C59.2298 5.78666 50.283 11.4613 46.7345 19.376C45.753 21.5973 45.451 22.8853 45.3566 25.5733C45.2811 27.72 45.3189 28.336 45.6586 29.7547C46.1305 31.7333 47.3951 34.4587 48.6031 36.1387C49.6224 37.5387 52.1139 40.1333 52.4725 40.1333C52.6047 40.1333 52.1328 39.536 51.4344 38.808C48.9618 36.2133 47.4706 33.376 46.9044 30.1467C46.5458 28.0747 46.5458 27.216 46.9233 25.424C48.4899 17.8453 55.6435 11.8533 66.138 9.31466C70.1018 8.36266 72.2158 8.15733 77.1988 8.26933C80.6152 8.344 82.1818 8.45599 83.9938 8.77333C90.1848 9.856 94.3184 11.704 97.395 14.7467C99.7544 17.0987 100.868 19.1707 101.585 22.5867C102.114 25.088 102.001 28.2427 101.283 30.296C100.245 33.3387 99.0183 35.2613 96.5079 37.7627C91.6759 42.5973 83.8805 45.36 75.0848 45.36C65.1565 45.36 58.1162 40.1893 58.135 32.928C58.1539 27.8693 61.2683 23.9493 66.44 22.4747C68.0067 22.0267 72.3857 22.0267 73.99 22.456L75.0282 22.736L73.5182 22.7547C71.3287 22.792 68.7428 23.3707 67.044 24.2107L65.5907 24.92L65.534 30.3707L65.4963 35.84H69.9319H74.3675V29.7733C74.3675 23.968 74.3864 23.7067 74.7262 23.7067C75.1603 23.7067 76.2362 24.08 77.4442 24.64L78.3313 25.0507V30.4453V35.84H79.5015H80.6718L80.0489 36.4747C78.7654 37.8 76.0097 38.8267 73.7635 38.8267C72.933 38.8267 72.48 38.9013 72.48 39.032C72.48 39.424 77.2743 39.1253 78.7465 38.6587C81.2003 37.8747 83.3898 35.9707 84.107 33.9733C84.258 33.5067 84.4468 32.4427 84.5034 31.6213C84.7299 28.2613 83.1067 25.536 79.6525 23.5387C78.3313 22.7733 79.1618 22.9787 80.8039 23.8373C85.2962 26.1333 87.0704 30.7813 85.0508 34.944L84.6167 35.84H86.0134H87.3913L87.3535 24.864L87.2969 13.9067L82.8047 13.8507L78.3124 13.8133L78.369 18.3867C78.4257 22.4 78.3879 22.9413 78.1425 22.848C77.765 22.68 75.5567 22.064 74.896 21.9333L74.3675 21.84V17.8267V13.8133H69.9319H65.4963V17.864V21.9333L63.9485 22.3627C63.0992 22.5867 61.6269 23.1467 60.6832 23.5947C56.4929 25.5733 54.2657 28.3547 54.0392 31.92C53.6617 37.52 58.3238 42.5227 66.3834 45.1733C69.9885 46.3493 71.8949 46.6853 76.0097 46.7973C84.5034 47.04 91.8269 45.2293 97.6027 41.4027C102.925 37.8933 105.7 33.1893 105.7 27.7387C105.7 22.8107 103.737 18.7413 99.4335 14.6347C94.3562 9.78133 87.2025 6.36533 79.3128 5.02133C76.8024 4.592 72.2158 4.424 69.8942 4.66666Z"
    fill="black" />
  <path
    d="M102.699 43.0453C102.454 43.2133 102.133 43.6427 101.982 43.9973C101.189 45.92 103.662 47.5813 105.153 46.1253C106.38 44.912 105.549 42.7467 103.869 42.7467C103.473 42.7467 102.944 42.8773 102.699 43.0453ZM104.473 43.2133C105.058 43.512 105.511 44.1467 105.511 44.7253C105.511 45.2853 104.851 46.1067 104.266 46.2933C102.378 46.9093 101.283 44.1467 103.058 43.2693C103.85 42.8587 103.718 42.8773 104.473 43.2133Z"
    fill="black" />
  <path
    d="M103.057 44.744C103.057 45.64 103.114 45.9386 103.246 45.7333C103.341 45.584 103.435 45.304 103.435 45.1173C103.435 44.5573 104.096 44.8186 104.152 45.416C104.19 45.696 104.303 45.92 104.398 45.92C104.643 45.92 104.605 45.0986 104.36 44.856C104.209 44.7066 104.209 44.6133 104.36 44.5386C104.662 44.3333 104.605 43.736 104.265 43.6053C104.096 43.5493 103.756 43.4933 103.51 43.4933C103.076 43.4933 103.057 43.5493 103.057 44.744ZM104.19 44.1466C104.19 44.296 104.02 44.4266 103.812 44.4266C103.605 44.4266 103.435 44.296 103.435 44.1466C103.435 43.9973 103.605 43.8666 103.812 43.8666C104.02 43.8666 104.19 43.9973 104.19 44.1466Z"
    fill="black" />
  <path
    d="M60.7775 51.7066V52.2666H62.1932H63.6088V64.96V77.6533H62.1932H60.7775V78.2133V78.7733H66.1569H71.5363V78.2133V77.6533H70.215H68.8938V64.4V51.1467H64.8357H60.7775V51.7066Z"
    fill="black" />
  <path
    d="M21.895 54.88V55.44L23.0841 55.4586C23.7259 55.4773 24.3865 55.496 24.5375 55.5146C24.7829 55.5333 24.8206 56.9146 24.8773 66.584L24.915 77.6533H23.405H21.895V78.2133V78.7733H27.6519H33.4088V78.2133V77.6533H31.8044H30.2V72.24V66.8266H34.4469H38.6938V72.24V77.6533H37.0894H35.485V78.2133V78.7733H41.2419H46.9988V78.2133V77.6533H45.4888H43.9788L44.0165 66.584L44.0731 55.5333L45.5454 55.4773L46.9988 55.4213V54.88V54.32H41.2419H35.485V54.88V55.4213L37.0516 55.4773L38.5994 55.5333L38.656 60.424L38.6938 65.3333H34.4469H30.2L30.2378 60.424L30.2944 55.5333L31.861 55.4773L33.4088 55.4213V54.88V54.32H27.6519H21.895V54.88Z"
    fill="black" />
  <path d="M51.5287 55.72V57.12H54.0769H56.625V55.72V54.32H54.0769H51.5287V55.72Z" fill="black" />
  <path
    d="M75.5 54.4506C75.4811 54.544 75.5 56.0933 75.5 57.904L75.5189 61.2266H74.0844H72.6688V61.88V62.5333H74.0844H75.4811L75.5378 69.5893L75.5944 76.664L76.1418 77.3546C77.0666 78.568 77.7839 78.7733 81.3135 78.7733H84.3713V78.2133V77.6533H82.295H80.2188V70.0933V62.5333H82.295H84.3713V61.88V61.2266H82.295H80.2188V57.7733V54.32H77.8594C76.557 54.32 75.5 54.376 75.5 54.4506Z"
    fill="black" />
  <path
    d="M93.5257 60.7786C90.147 61.3013 87.2592 63.2053 85.9757 65.7626C84.1825 69.3653 84.8809 73.696 87.6933 76.496C90.6944 79.4826 95.6963 80.192 99.7733 78.2133C103.794 76.272 105.549 72.016 104.247 67.3866C103.435 64.4373 101.397 62.3466 98.3577 61.3013C97.1119 60.872 94.6582 60.6106 93.5257 60.7786ZM96.8099 62.2533C97.4328 62.5706 98.0179 63.2053 98.4332 64.008C99.1127 65.3146 99.2825 72.464 98.7163 75.0026C98.603 75.544 98.2255 76.384 97.9047 76.8693C97.395 77.616 97.1308 77.8026 96.2059 78.1013C95.2244 78.4186 94.979 78.4186 94.0353 78.2133C92.6952 77.9146 91.5249 76.8693 91.1474 75.6C90.7888 74.4613 90.7699 65.9493 91.1097 64.848C91.5815 63.3546 92.6008 62.272 93.8277 61.9733C94.6204 61.768 96.1682 61.9173 96.8099 62.2533Z"
    fill="black" />
  <path
    d="M118.403 60.9466C116.912 61.3573 115.949 61.8986 114.93 62.9066L114.005 63.8213V62.5146V61.2266L110.004 61.264L105.983 61.32V61.88V62.44L107.361 62.496L108.72 62.552V70.0933V77.6533H107.304H105.889V78.2133V78.7733H111.268H116.648V78.2133V77.6533H115.326H114.005V72.2773C114.005 69.272 114.099 66.6213 114.194 66.248C114.628 64.68 116.176 63.168 117.837 62.6826C119.007 62.328 120.026 62.7573 120.574 63.84C120.989 64.6426 120.989 64.792 120.989 71.1573V77.6533H119.856H118.724V78.2133V78.7733H123.914H129.105V78.2133V77.6533H127.689H126.274V71.2506C126.274 64.176 126.198 63.504 125.141 62.384C123.839 60.9653 120.706 60.2933 118.403 60.9466Z"
    fill="black" />
  <path
    d="M48.8863 61.88V62.5333H50.3019H51.7175V70.0933V77.6533H50.3019H48.8863V78.2133V78.7733H54.1713H59.4563V78.2133C59.4563 77.672 59.4563 77.672 58.1917 77.616L56.9082 77.56L56.8515 69.384L56.8138 61.2267H52.85H48.8863V61.88Z"
    fill="black" />
</svg>