<svg xmlns="http://www.w3.org/2000/svg" width="168" height="68" viewBox="0 0 168 68" fill="none">
  <g clip-path="url(#clip0_421_1309)">
    <path
      d="M75.9111 0.0869331C75.9111 0.242184 75.264 0.738991 74.9778 0.80109C74.8284 0.832138 74.6916 0.888031 74.6729 0.912868C74.4178 1.29168 74.2622 1.4283 74.1067 1.4283C74.0071 1.4283 73.8453 1.50282 73.7333 1.58976C73.5591 1.73881 73.5218 1.74502 73.3849 1.6767C73.248 1.59597 73.2169 1.60839 73.0178 1.80091C72.8187 1.99342 72.7689 2.01205 72.4702 1.99963C72.296 1.99342 71.9787 1.94374 71.7733 1.88785C70.672 1.58976 68.0587 1.49662 66.7644 1.70155C66.3724 1.76365 65.9742 1.85059 65.8809 1.90027C65.7876 1.94995 65.6756 1.98721 65.6258 1.98721C65.464 1.98721 64.8107 2.31634 64.5244 2.5399C64.3689 2.65789 64.1573 2.86282 64.0578 2.99324C63.952 3.12365 63.8151 3.24164 63.7467 3.25406C63.6782 3.27269 63.3733 3.34721 63.0622 3.42173C62.2533 3.61424 61.5689 3.96821 61.1084 4.43397C60.5547 4.99287 60.5049 5.0736 60.3493 5.70082C60.2124 6.27214 60.2124 6.27835 60.3182 6.78757C60.3804 7.06702 60.4551 7.34648 60.4862 7.40237C60.5858 7.58246 60.704 7.52657 60.7911 7.26575C60.9591 6.75652 61.3636 6.60748 62.2844 6.71926C62.5396 6.7441 63.1618 6.75031 63.6596 6.73168L64.5742 6.68821L64.9724 6.87452C65.2836 7.02356 65.5324 7.22227 66.1111 7.79981C66.9698 8.65059 67.5422 9.09771 68.1769 9.40821C68.5502 9.5883 68.6373 9.66282 68.7493 9.8926C68.9236 10.2528 68.9173 10.3397 68.6684 10.7061C68.5564 10.88 68.3573 11.1905 68.2267 11.3892C67.7724 12.091 66.3164 13.6621 66.1173 13.6621C66.0924 13.6621 65.8062 13.7925 65.4827 13.954C64.8916 14.2458 64.7733 14.3762 65.0533 14.4446C65.1342 14.4632 65.2338 14.5129 65.2649 14.5563C65.3582 14.6681 65.184 14.8855 64.9662 14.9352C64.5182 15.0345 63.2489 16.084 63.2924 16.32C63.3111 16.4069 63.4044 16.4318 63.84 16.4442C64.1324 16.4566 64.3938 16.4877 64.4187 16.5125C64.4498 16.5436 64.3564 16.6429 64.2133 16.7423C63.1556 17.4751 62.7138 17.9905 62.9502 18.2265C63 18.2824 63.1244 18.3631 63.224 18.4128C63.4667 18.5432 63.4542 18.6674 63.1618 19.0586C62.8133 19.5244 62.4089 20.3255 62.4089 20.549C62.4089 20.6981 62.4836 20.8036 62.7511 21.0645C62.9378 21.2446 63.0933 21.4309 63.0933 21.4805C63.0933 21.6731 62.496 22.6294 62.1787 22.9523C62.0978 23.0331 62.0356 23.1448 62.0356 23.2007C62.0356 23.3063 62.0978 23.3063 62.6391 23.1883C62.8818 23.1386 62.9813 23.2877 62.8258 23.4615C62.7138 23.5857 62.4089 24.4924 62.4089 24.7036C62.4089 24.8091 62.4649 24.8712 62.6267 24.9395C62.8133 25.0141 62.8444 25.0575 62.8444 25.2314C62.8444 25.3432 62.8942 25.4984 62.9502 25.5854C63.0124 25.6723 63.056 25.8586 63.056 26.0511L63.0622 26.3616L63.3111 26.3927C63.5911 26.4299 63.5849 26.3927 63.4604 27.1193C63.392 27.5229 63.392 27.5788 63.4916 27.6906C63.6471 27.8583 63.672 28.1625 63.5787 28.6966C63.5289 28.9574 63.504 29.2058 63.5164 29.2431C63.56 29.3797 63.7716 29.4418 63.9084 29.3673C64.0142 29.3114 64.0578 29.3176 64.1324 29.3921C64.2133 29.4729 64.2133 29.5288 64.1138 29.8765C64.0516 30.0939 64.0018 30.3857 64.0018 30.5224C63.9956 30.7335 64.0204 30.777 64.1698 30.8515L64.3502 30.9384L64.3191 31.7582C64.2818 32.5841 64.1822 33.2175 63.9956 33.7143C63.8836 34.0186 63.9396 34.1552 64.1822 34.1552C64.3627 34.1552 64.4 34.2608 64.4 34.7141C64.4 34.9067 64.4436 35.1923 64.4933 35.3414C64.5804 35.5773 64.5804 35.6332 64.4933 35.9003C64.4373 36.0679 64.4 36.3039 64.4124 36.4343C64.4311 36.6517 64.4498 36.6703 64.6302 36.6889C64.8916 36.7138 64.9227 36.8256 64.8853 37.6701L64.8542 38.316L65.0969 38.3781C65.408 38.465 65.4516 38.6451 65.2773 39.0984C65.2089 39.2909 65.1467 39.4524 65.1467 39.471C65.1467 39.4835 65.2462 39.589 65.3707 39.7132C65.5698 39.912 65.5884 39.9554 65.5387 40.1355C65.5138 40.2473 65.4889 40.5019 65.4889 40.7006C65.4889 41.0422 65.5013 41.0732 65.6756 41.1726L65.8622 41.2782V41.8743C65.8622 42.2656 65.8373 42.4953 65.7813 42.5512C65.6507 42.6816 65.7004 42.781 65.912 42.7996C66.0862 42.8183 66.1111 42.8369 66.1111 43.0046C66.1111 43.1536 66.0676 43.2157 65.8871 43.3151C65.7627 43.3834 65.5387 43.5138 65.3893 43.6069C65.24 43.7001 64.9787 43.8491 64.8044 43.9423L64.4933 44.1099L64.0889 44.0044C63.3609 43.8243 63.1804 43.8553 62.1289 44.3397C61.9236 44.4329 61.6996 44.5757 61.6249 44.6564C61.1582 45.1843 60.9156 46.0847 61.2453 46.0785C61.2889 46.0785 61.4133 45.9543 61.5253 45.8053C61.6373 45.6562 61.8302 45.4824 61.9484 45.4265C62.1538 45.3271 62.1787 45.3333 62.4027 45.4451C62.5333 45.5134 62.8133 45.619 63.0249 45.6749C63.3733 45.7742 63.4293 45.7742 63.7342 45.6873C64.1324 45.5693 65.0658 45.4389 65.1467 45.4886C65.24 45.5445 65.2213 45.6749 65.1031 45.7804C65.0409 45.8363 64.7858 45.9481 64.5307 46.0351C64.0578 46.2027 63.7964 46.3952 63.6471 46.6871C63.5973 46.7803 63.4791 46.9914 63.3796 47.1653C63.1556 47.5565 62.8942 48.4073 62.944 48.5998C63 48.8296 63.1867 48.7799 63.3858 48.488C63.6098 48.1527 63.7778 48.0657 64.2444 48.0657C64.904 48.0595 65.6133 47.6373 66.1484 46.9293C66.2978 46.7368 66.4347 46.5753 66.4533 46.5753C66.472 46.5753 66.7084 46.358 66.9822 46.0909C67.8596 45.234 68.1458 45.0911 68.6249 45.2526C68.9796 45.3706 69.5396 45.737 69.664 45.9233C69.7884 46.1158 69.7884 46.2089 69.6702 47.01C69.5893 47.5503 69.5831 47.6745 69.6516 47.7428C69.7138 47.8049 69.7698 47.8111 69.8507 47.7677C70.0933 47.631 70.6036 47.0287 70.7031 46.7616C70.9209 46.1717 70.7902 44.7868 70.4542 44.1596C70.3796 44.0106 70.3111 43.8243 70.3111 43.7436C70.3111 43.6566 70.2489 43.5573 70.1493 43.4952C69.9751 43.3772 69.9751 43.3399 70.1307 42.7872C70.168 42.632 70.2302 42.4705 70.2676 42.4332C70.3484 42.3215 70.5911 42.3339 70.6844 42.4457C70.728 42.4953 70.8027 42.5388 70.8462 42.5388C70.9582 42.5388 70.9582 42.2842 70.84 41.8371C70.7093 41.3403 70.7218 41.1912 70.8773 41.1415C70.9707 41.1105 71.0578 41.1478 71.176 41.2595C71.4871 41.5576 71.5556 41.2906 71.4311 40.3218C71.3938 40.0548 71.3191 39.707 71.2631 39.5518C71.1449 39.204 71.1822 39.0736 71.4124 39.0488C71.5742 39.0301 71.5867 39.0053 71.6053 38.7258C71.6178 38.5644 71.5867 38.3098 71.5369 38.1669C71.456 37.9247 71.456 37.8813 71.568 37.6329C71.68 37.3907 71.6862 37.3348 71.6116 36.987C71.568 36.7821 71.5307 36.4095 71.5307 36.1735C71.5244 35.9313 71.4871 35.6767 71.4498 35.6022C71.3627 35.4594 71.344 35.0867 71.4062 34.8508C71.4622 34.6645 71.6364 34.6769 71.9973 34.8942C72.3956 35.1426 72.744 35.2296 73.136 35.1799C73.3787 35.1488 73.5156 35.1613 73.6587 35.2358C73.7893 35.3041 75.1084 35.5215 75.3884 35.5215C75.4009 35.5215 75.4507 35.5649 75.5004 35.6208C75.5876 35.7078 75.5876 35.7388 75.5129 35.8816C75.3387 36.2046 75.1644 36.9808 75.1644 37.4093C75.1644 38.4526 75.6622 39.825 76.4524 40.9863C77.0124 41.7998 77.3796 42.1724 78.0827 42.6506C78.4747 42.9176 79.8809 43.5945 80.0364 43.5945C80.1484 43.5945 80.2791 43.7436 80.2231 43.7994C80.2044 43.8243 78.8791 43.8429 77.2862 43.8429H74.3867L74.0009 44.023C73.7271 44.1534 73.5467 44.2962 73.3662 44.526C73.2231 44.7061 73.1111 44.8738 73.1111 44.9048C73.1111 44.9359 73.0178 45.0477 72.8996 45.1532C72.7502 45.2836 72.6693 45.4203 72.6444 45.5941C72.6196 45.737 72.5573 45.9419 72.5138 46.0537C72.4142 46.2835 72.3956 46.6126 72.4764 46.6623C72.5076 46.6809 72.6382 46.625 72.7627 46.5381C72.9742 46.3952 73.0178 46.389 73.1796 46.4511C73.3973 46.5443 73.4844 46.6809 73.4844 46.9355C73.4844 47.2025 73.6276 47.3019 73.8267 47.1715C73.9076 47.1156 74.032 47.0721 74.0942 47.0721C74.2311 47.0721 74.5733 47.4199 74.6356 47.6124C74.6791 47.7615 74.8471 47.7987 74.9591 47.6869C75.0089 47.6373 75.1582 47.6435 75.4942 47.6931C75.9858 47.7739 76.8071 47.749 77.7156 47.631C78.1449 47.5752 80.6276 47.4385 81.2622 47.4323C81.3493 47.4323 81.928 47.4696 82.5502 47.5068L83.6827 47.5814L84.3547 47.4137C84.7218 47.3205 85.1947 47.1901 85.4 47.1218C85.7547 47.0038 85.8293 47.0038 87.1111 47.0783C88.6293 47.1591 90.496 47.1156 91.1804 46.979C91.4231 46.9293 91.8462 46.861 92.12 46.8299C93.2089 46.6871 94.1733 46.2276 95.5547 45.1843C96.9484 44.1224 97.7698 43.135 98.2427 41.924C98.3547 41.6383 98.4667 41.3589 98.4978 41.303C98.5289 41.2471 98.6222 40.9801 98.7155 40.7068C98.8027 40.4336 98.9084 40.1231 98.9396 40.0237C99.008 39.8374 99.2071 38.968 99.3067 38.4402C99.3378 38.2849 99.3627 37.7012 99.3627 37.1361C99.3627 36.1735 99.3502 36.0617 99.1573 35.3041C98.952 34.5154 98.8276 34.0683 98.6907 33.6895C98.4169 32.907 98.1867 31.9134 98.0933 31.1434C97.9502 29.9821 98.1182 29.2245 98.6658 28.5786C99.1013 28.0694 99.1698 28.0383 99.68 28.1253C100.165 28.1998 100.433 28.3364 100.924 28.7587C101.484 29.2307 101.827 29.3735 102.642 29.4542C103.339 29.5225 103.351 29.5225 103.544 29.3797C103.731 29.2369 103.749 29.2369 103.955 29.3362C104.247 29.4729 104.39 29.4604 104.508 29.2804C104.633 29.0941 104.745 29.0878 104.95 29.2493C105.18 29.4294 105.492 29.417 105.579 29.2183C105.635 29.1003 105.697 29.063 105.852 29.063C105.964 29.0568 106.126 29.0195 106.213 28.9699C106.3 28.9202 106.456 28.8829 106.568 28.8767C106.767 28.8767 106.96 28.7401 106.96 28.6035C106.96 28.4731 106.636 28.2122 106.294 28.0694C105.859 27.8831 105.796 27.8024 105.964 27.6471C106.164 27.4608 106.108 27.2497 105.84 27.1751C105.722 27.1379 105.398 26.9888 105.131 26.8336C104.757 26.6162 104.589 26.4734 104.446 26.2561C104.316 26.0573 104.185 25.9394 104.036 25.8897C103.917 25.8524 103.793 25.7965 103.756 25.7717C103.438 25.5543 101.908 25.2128 101.229 25.2128C100.819 25.2128 100.109 25.3991 99.9289 25.5605C99.8791 25.604 99.7671 25.6661 99.68 25.7034C99.3191 25.8586 98.1991 26.5976 97.7698 26.9578C96.9049 27.6906 96.5876 28.2557 96.2578 29.6219C96.1333 30.1373 96.1147 30.3733 96.1147 31.4849C96.1147 32.4413 96.1396 32.8511 96.208 33.1306C96.264 33.3355 96.3262 33.6584 96.3511 33.8447C96.376 34.031 96.432 34.2857 96.4818 34.4036C96.5253 34.5216 96.5938 34.7762 96.6249 34.9625C96.656 35.1488 96.7307 35.5152 96.7867 35.7699C96.9484 36.484 96.8862 38.0489 96.6747 38.6886C96.1831 40.1479 95.4302 41.2782 94.2667 42.278C93.5947 42.8617 93.4827 42.8058 93.8373 42.0668C94.192 41.3154 94.3787 40.6882 94.6462 39.3406C94.8142 38.5023 94.8267 38.3098 94.8142 37.4155C94.7956 36.4157 94.7769 36.3039 94.4471 35.1799C94.2418 34.4782 94.1422 34.2173 93.8498 33.615C93.6133 33.1306 93.5822 33.025 93.6444 32.9132C93.7191 32.7704 93.7378 32.7952 93.3084 32.3233C93.1591 32.1556 92.904 31.8078 92.568 31.3048C92.512 31.2179 92.4187 31.0564 92.3627 30.9571C92.3129 30.8515 92.2009 30.659 92.12 30.5224C92.0329 30.3857 91.9644 30.1932 91.9644 30.1001C91.9644 29.8579 91.8836 29.7275 91.5476 29.417C90.3156 28.293 90.2471 28.1936 90.6204 28.1253C90.6889 28.1129 90.7511 28.0694 90.7636 28.0321C90.7884 27.9638 90.6764 27.8831 89.88 27.3801C88.9404 26.7839 88.4613 26.1443 88.7662 25.8897C88.8533 25.8214 88.9529 25.8276 89.4071 25.9456C90.2907 26.1691 91.0933 26.0946 91.0933 25.7779C91.0933 25.7158 90.9564 25.5233 90.7822 25.3432C90.6142 25.1631 90.4711 25.0078 90.4711 24.9954C90.4711 24.9085 90.8942 24.9085 91.1991 24.9954C91.392 25.0513 91.7031 25.101 91.8898 25.1072C92.176 25.1134 92.2444 25.0948 92.3502 24.9706C92.4622 24.8215 92.4622 24.8215 92.3316 24.6787C92.2569 24.598 92.0453 24.4427 91.8649 24.3309C91.2738 23.9646 91.392 23.8217 92.1324 24.008C92.5493 24.1074 92.6116 24.1136 92.7609 24.0267C92.8667 23.9708 92.9351 23.8714 92.9476 23.772C92.9787 23.505 93.1093 23.4367 93.3831 23.5609C93.5573 23.6416 93.7564 23.6603 94.2044 23.6478C94.7147 23.6292 94.7956 23.6168 94.8142 23.5174C94.8329 23.4429 94.5529 23.1138 93.9431 22.4928C93.0533 21.5861 92.7049 21.1825 92.6302 20.9713C92.5618 20.7912 92.7671 20.8471 93.072 21.0955C93.3893 21.3563 93.4391 21.3936 94.0613 21.8097C94.7582 22.2754 95.4489 22.4866 95.536 22.2568C95.6044 22.0767 95.5733 21.6979 95.48 21.5737C95.3618 21.4184 95.3618 21.1762 95.4738 21.1762C95.5236 21.1762 95.7538 21.2756 95.984 21.3936C96.4071 21.6172 96.5938 21.6606 96.6622 21.5489C96.6996 21.4868 96.5627 20.8844 96.4382 20.5739C96.32 20.2758 96.4133 20.2075 96.7804 20.3317C97.1787 20.4683 98.3982 20.5366 98.5289 20.431C98.6595 20.3193 98.6471 20.0895 98.4853 19.81C98.4044 19.6796 98.3671 19.5492 98.392 19.5244C98.4356 19.4747 99.1324 19.6983 99.4311 19.8535C99.6053 19.9404 100.041 19.9591 100.165 19.8846C100.228 19.8411 100.228 19.7231 100.147 19.2822C100.035 18.6115 99.96 18.4562 99.1636 17.1211C98.5849 16.1461 98.4916 15.8977 98.7031 15.8977C98.7467 15.8977 99.0764 16.1834 99.4436 16.5311C100.788 17.8352 101.497 18.4376 101.677 18.4438C101.957 18.4438 101.976 18.0215 101.715 17.5558C101.615 17.3757 101.603 17.3074 101.659 17.2515C101.721 17.1894 101.777 17.2018 101.914 17.2826C102.156 17.4254 103.071 17.711 103.202 17.6862C103.513 17.6241 103.438 17.0031 103.04 16.4131C102.772 16.0095 102.175 15.3885 101.908 15.227C101.646 15.078 101.677 14.9476 101.97 14.9848C102.169 15.0097 102.704 15.1773 103.071 15.3326C104.185 15.7983 104.322 15.7362 103.812 14.991C103.544 14.5998 103.532 14.5688 103.637 14.488C103.7 14.4446 103.88 14.4073 104.036 14.4073C104.197 14.4073 104.465 14.3638 104.633 14.3141C104.801 14.2645 105.006 14.221 105.093 14.221C105.18 14.221 105.404 14.1775 105.591 14.1278C105.778 14.072 106.076 13.9974 106.244 13.954C106.531 13.8857 106.556 13.8608 106.574 13.6807C106.593 13.5193 106.556 13.4572 106.375 13.3081C106.188 13.1653 106.095 13.0038 106.17 12.9728C106.176 12.9666 106.549 12.9479 106.991 12.9231C107.607 12.892 107.856 12.8486 108.043 12.7616C108.18 12.6933 108.285 12.6064 108.285 12.5753C108.285 12.5381 108.124 12.4325 107.918 12.3331C107.719 12.2338 107.508 12.1282 107.458 12.0972C107.408 12.0723 107.321 12.0289 107.271 12.0102C107.221 11.9854 107.066 11.9233 106.929 11.8612C106.792 11.8053 106.5 11.6749 106.276 11.5817C106.052 11.4886 105.809 11.3706 105.734 11.3271C105.66 11.2774 105.56 11.2402 105.516 11.2402C105.473 11.2402 105.299 11.1657 105.124 11.0849C104.956 10.998 104.782 10.9297 104.745 10.9297C104.708 10.9297 104.633 10.8862 104.589 10.8303C104.546 10.7744 104.434 10.6999 104.347 10.6626L104.191 10.5943L104.34 10.5695C104.527 10.5384 106.02 10.7123 106.618 10.8365C107.022 10.9235 107.756 11.0415 108.671 11.1781C109.418 11.2899 110.588 11.3209 111.067 11.2402C111.508 11.1657 111.95 10.998 112.025 10.8738C112.131 10.7061 111.652 10.3087 111.197 10.1845C111.06 10.1472 110.93 10.0913 110.911 10.0665C110.892 10.0354 110.768 9.99195 110.625 9.96712C110.395 9.92986 110.252 9.79945 110.345 9.7063C110.364 9.68766 110.6 9.65041 110.861 9.61935C112.355 9.47031 113.064 9.25917 113.929 8.70648C114.377 8.42081 114.551 8.25935 114.551 8.13515C114.551 8.02958 114.308 7.76255 114.215 7.76255C114.184 7.76255 114.01 7.67561 113.817 7.56383C113.5 7.38374 113.487 7.36511 113.587 7.28438C113.655 7.24091 113.78 7.20365 113.873 7.20365C113.966 7.20365 114.228 7.14775 114.464 7.07323C114.794 6.97387 114.962 6.87452 115.229 6.6199C115.422 6.43981 115.74 6.19762 115.945 6.08584C116.144 5.97406 116.474 5.71944 116.679 5.52073C116.984 5.22264 117.046 5.12949 117.028 4.98666C117.009 4.8252 116.984 4.81278 116.71 4.79415C116.542 4.78173 116.281 4.81278 116.119 4.86867C115.957 4.91835 115.69 4.97424 115.528 4.99908C115.366 5.01771 115.142 5.0736 115.03 5.11707C114.918 5.16675 114.638 5.22264 114.396 5.24748C114.159 5.27232 113.916 5.31579 113.86 5.34063C113.811 5.37168 113.35 5.43999 112.834 5.48967C112.075 5.5704 111.851 5.57661 111.602 5.5083C111.11 5.3841 111.191 5.21643 111.751 5.21643C112.149 5.21643 113.755 4.86246 114.987 4.50228C115.435 4.37186 116.362 3.91853 116.667 3.68255C117.003 3.41552 117.283 3.10501 117.289 2.99945C117.289 2.95597 117.451 2.75105 117.65 2.5399C118.154 2.00584 118.347 1.62703 118.347 1.16748C118.347 0.819721 118.272 0.558899 118.172 0.558899C118.148 0.558899 117.849 0.770039 117.507 1.02465C116.741 1.60218 115.329 2.32876 114.613 2.51506C114.526 2.53369 114.402 2.58337 114.333 2.61442C114.172 2.68894 113.444 2.90009 112.964 3.01186C112.572 3.0988 112.324 3.16091 111.583 3.35963C111.34 3.42173 111.092 3.47762 111.029 3.47762C110.967 3.47762 110.693 3.53351 110.413 3.59561C109.66 3.7757 108.565 3.97442 108.329 3.97442C108.217 3.97442 107.881 4.0241 107.588 4.07999C107.159 4.16693 106.711 4.19177 105.311 4.19177C104.228 4.19177 103.413 4.16693 103.164 4.11725C102.94 4.07999 102.455 4.0241 102.076 4.00547C101.702 3.98063 101.111 3.92474 100.769 3.87506C100.427 3.83159 99.7547 3.76328 99.2756 3.72602C98.7902 3.69497 98.2613 3.63908 98.0933 3.60803C97.9191 3.57698 97.3342 3.52109 96.7867 3.47762C96.2391 3.44036 95.6356 3.38447 95.4489 3.34721C95.2622 3.31616 94.5591 3.26027 93.8933 3.22301C93.2276 3.19196 92.5307 3.13607 92.344 3.10501C91.4916 2.95597 89.0213 3.04913 87.7022 3.28511C85.6987 3.64529 84.1058 4.81278 82.7244 6.9304C82.5253 7.2347 82.3138 7.55762 82.2516 7.65077C82.1831 7.74392 82.1333 7.84949 82.1333 7.89296C82.1333 7.93022 82.096 8.03579 82.0462 8.12273C81.9964 8.21589 81.816 8.58228 81.6356 8.94246C81.312 9.5883 80.4844 10.8986 80.3102 11.0477C80.2356 11.1036 80.1858 11.0849 80.0551 10.9297C79.968 10.8179 79.8933 10.6937 79.8933 10.644C79.8933 10.5943 79.744 10.2714 79.5698 9.92986C79.1218 9.07287 79.0533 8.95488 78.9289 8.81826C78.848 8.73132 78.8293 8.64437 78.8604 8.4767C78.8978 8.29041 78.8791 8.2221 78.7484 8.06684C78.5493 7.83707 78.5431 7.66319 78.7173 7.52036C78.848 7.41479 78.848 7.41479 78.5307 7.04839C78.3564 6.84346 78.2133 6.63853 78.2133 6.59506C78.2133 6.55159 78.2818 6.48949 78.3689 6.45844C78.456 6.42739 78.5244 6.39013 78.5244 6.3715C78.5244 6.35908 78.4498 6.1852 78.3627 5.99269L78.1947 5.6325L78.3378 5.52694C78.4498 5.43999 78.4684 5.3841 78.4311 5.22885C78.4124 5.12328 78.3378 4.96803 78.2693 4.88109C78.1884 4.78173 78.1324 4.58301 78.1138 4.33461C78.0889 4.11725 77.9956 3.70739 77.896 3.41552C77.6347 2.65168 77.4231 1.93753 77.3796 1.62082C77.3298 1.29168 77.0373 0.72657 76.7449 0.378807C76.6267 0.248394 76.5333 0.105564 76.5333 0.0683022C76.5333 0.0248337 76.4027 -7.62939e-06 76.2222 -7.62939e-06C75.9982 -7.62939e-06 75.9111 0.0248337 75.9111 0.0869331Z"
      fill="black" />
    <path
      d="M129.733 53.6548C128.912 53.7914 128.644 53.8535 128.483 53.9342C128.389 53.9839 128.277 54.0274 128.234 54.0274C128.159 54.0274 127.605 54.2696 127.276 54.4435C126.89 54.6484 126.124 55.2197 125.801 55.5364C124.693 56.6294 124.003 58.0887 123.735 59.8959C123.604 60.7715 123.611 61.4484 123.754 62.3799C124.127 64.8018 125.378 66.435 127.587 67.3852C128.004 67.5591 128.601 67.7081 129.13 67.7702C129.534 67.8137 129.758 67.8634 129.777 67.9193C129.82 68.0372 130.953 68.031 131.077 67.913C131.127 67.8634 131.364 67.8075 131.644 67.7826C132.11 67.7392 132.919 67.5342 133.311 67.3541C133.734 67.1616 133.815 67.1182 134.002 67.0188C134.288 66.8511 135.022 66.2984 135.302 66.0314C136.285 65.0937 137.044 63.715 137.387 62.2557C137.654 61.1068 137.667 59.2624 137.412 58.3806C137.026 57.0392 136.41 55.9463 135.688 55.3191C135.284 54.9651 134.786 54.5925 134.63 54.5242C134.556 54.4869 134.45 54.4372 134.4 54.4062C134.052 54.1888 133.317 53.9156 132.782 53.81C132.558 53.7666 132.228 53.6982 132.042 53.661C131.675 53.5865 130.169 53.5803 129.733 53.6548ZM131.65 54.7105C132.166 54.8223 132.863 55.1328 133.236 55.4184C133.46 55.5861 134.02 56.145 134.195 56.3748C134.269 56.4741 134.4 56.6853 134.487 56.8529C134.574 57.0144 134.674 57.1821 134.699 57.2193C134.73 57.2566 134.804 57.4243 134.867 57.5982C135.14 58.3061 135.271 58.8898 135.371 59.7841C135.464 60.6038 135.47 60.815 135.396 61.4608C135.29 62.4171 135.109 63.2307 134.904 63.684C134.17 65.3048 133.417 66.0873 132.098 66.6027C131.65 66.7828 131.606 66.789 130.573 66.789C129.578 66.7828 129.491 66.7766 129.111 66.6214C128.414 66.3357 127.966 66.0562 127.568 65.6464C127.288 65.3669 126.809 64.7459 126.809 64.6714C126.809 64.6528 126.759 64.5596 126.697 64.4727C126.591 64.3112 126.448 63.9759 126.193 63.2617C126.131 63.0878 126.012 62.6159 125.938 62.2184C125.82 61.6036 125.807 61.349 125.826 60.4486C125.869 58.9085 126.112 57.9583 126.778 56.766C126.946 56.4679 127.556 55.7662 127.867 55.524C128.875 54.7291 130.337 54.4124 131.65 54.7105Z"
      fill="black" />
    <path
      d="M2.912 53.8471C2.83111 53.8906 2.8 53.9838 2.8 54.1576C2.8 54.5427 2.97422 54.6731 3.61511 54.7724C3.90133 54.8159 4.37422 54.909 4.66667 54.9836L5.19556 55.1202L5.21422 59.7094C5.22667 64.2303 5.22667 64.3111 5.096 64.8327C4.92178 65.5282 4.78489 65.7828 4.38044 66.1741C3.91378 66.6212 3.26044 66.8261 2.73778 66.6957C2.58222 66.6585 2.27733 66.5839 2.05333 66.5343C1.82933 66.4846 1.61778 66.4038 1.58044 66.3542C1.51822 66.2672 1.33156 65.4723 1.18844 64.6775C1.15111 64.4725 1.08889 64.1372 1.04533 63.9322L0.964444 63.5596L0.485333 63.541L0 63.5224V65.4785V67.4285L0.267556 67.4906C0.410667 67.5279 0.678222 67.5962 0.852444 67.6459C1.03289 67.6955 1.44978 67.7576 1.77333 67.7825C2.14667 67.8135 2.40178 67.8632 2.45778 67.9129C2.576 68.0371 3.53422 68.0309 3.696 67.9067C3.75822 67.857 3.93867 67.8011 4.10044 67.7763C4.256 67.7576 4.52978 67.6707 4.69778 67.5962C4.872 67.5217 5.05244 67.4409 5.10222 67.4161C5.25156 67.3478 5.432 67.236 5.69333 67.0373C6.40889 66.497 6.79467 65.907 7.03111 64.9942C7.14933 64.5222 7.15556 64.3111 7.15556 59.8274C7.15556 56.1573 7.17422 55.1388 7.23644 55.1016C7.31111 55.0519 7.56622 54.996 8.36889 54.8407C9.26489 54.6669 9.408 54.6234 9.49511 54.4992C9.62578 54.3067 9.60711 53.9217 9.464 53.8409C9.296 53.754 3.06133 53.7602 2.912 53.8471Z"
      fill="black" />
    <path
      d="M11.8036 53.8225C11.7787 53.8411 11.76 54.0088 11.76 54.1889C11.76 54.5739 11.8471 54.6857 12.1831 54.7416C12.4818 54.7974 13.0169 54.9465 13.104 55.0024C13.1911 55.0645 13.4151 55.5675 13.4711 55.8345C13.496 55.9525 13.552 56.1264 13.5956 56.232C13.6391 56.3313 13.7076 56.53 13.7387 56.6667C13.8009 56.8964 13.888 57.1635 14.0933 57.7534C14.3111 58.3558 14.7467 59.7406 14.7467 59.8152C14.7467 59.8586 14.7902 59.9766 14.84 60.076C14.896 60.1753 14.9645 60.3616 14.9956 60.4796C15.0578 60.7156 15.2631 61.3615 15.4 61.7279C15.4436 61.8458 15.5431 62.1563 15.6178 62.411C15.6987 62.6656 15.8107 63.0133 15.8729 63.181C15.9413 63.3487 15.9911 63.5288 15.9911 63.5847C15.9973 63.6405 16.0471 63.7958 16.1156 63.9324C16.184 64.069 16.2338 64.2305 16.24 64.2926C16.24 64.3547 16.2898 64.5348 16.3582 64.6963C16.4205 64.8577 16.5325 65.1993 16.6133 65.4539C16.7502 65.8886 16.856 66.2177 17.0489 66.758C17.0925 66.876 17.1671 67.1306 17.2169 67.3169C17.2729 67.5032 17.3725 67.733 17.4471 67.8261C17.5716 67.9814 17.6089 67.9938 18.088 67.9938L18.5982 68L18.7476 67.6709C18.8285 67.4846 18.9342 67.23 18.9778 67.0933C19.0213 66.9629 19.0773 66.8201 19.1022 66.789C19.1271 66.7518 19.1831 66.6276 19.2142 66.5096C19.2516 66.3916 19.3573 66.0935 19.4445 65.8575C19.5316 65.6153 19.656 65.28 19.7245 65.1123C19.7867 64.9384 19.8987 64.6466 19.9733 64.4603C20.048 64.274 20.1538 63.9759 20.216 63.8082C20.5085 62.9947 20.7947 62.2371 20.8756 62.057C20.9253 61.9514 20.9689 61.8272 20.9689 61.7775C20.9751 61.7341 21.0249 61.585 21.0933 61.4484C21.1618 61.3118 21.2116 61.1627 21.2178 61.1193C21.2178 61.0696 21.2613 60.9454 21.3111 60.8398C21.392 60.6473 21.4605 60.4858 21.6782 59.8648C21.7342 59.7096 21.8089 59.5295 21.84 59.4612C21.9022 59.3308 22.0391 58.9582 22.1822 58.5297C22.2258 58.3931 22.3067 58.1943 22.3627 58.095C22.4187 57.9894 22.4622 57.8714 22.4622 57.8279C22.4622 57.7783 22.5058 57.6541 22.5556 57.5485C22.6053 57.4367 22.6862 57.2256 22.7298 57.0703C22.7982 56.8405 22.8356 56.7847 22.9725 56.7722C23.1218 56.7536 23.1467 56.7784 23.2089 57.0206C23.2462 57.1697 23.3022 57.3436 23.3396 57.4119C23.3707 57.4802 23.4391 57.6727 23.4889 57.8466C23.6009 58.2502 23.7627 58.747 23.8373 58.9023C23.9182 59.0948 24.4347 60.7032 24.4845 60.933C24.5093 61.0447 24.5529 61.1627 24.5716 61.2C24.5965 61.2311 24.696 61.5105 24.7893 61.821C24.8827 62.1253 25.0133 62.5165 25.0756 62.6904C25.144 62.8581 25.2125 63.0816 25.2373 63.1872C25.2622 63.2866 25.2996 63.4046 25.3307 63.4356C25.3556 63.4729 25.4053 63.6157 25.4427 63.7461C25.4738 63.8827 25.6542 64.4416 25.8409 64.9881C26.0276 65.5346 26.2578 66.2301 26.3511 66.5406C26.5378 67.1616 26.656 67.497 26.7991 67.8013C26.8987 68 26.8987 68 27.3778 68C27.8382 68 27.8569 67.9938 28.0062 67.7951C28.0871 67.6895 28.1867 67.497 28.2302 67.379C28.2676 67.261 28.3609 67.0064 28.4356 66.8201C28.5102 66.6338 28.6347 66.3109 28.7156 66.1059C28.7902 65.901 29.0018 65.3545 29.176 64.895C29.3565 64.4354 29.5493 63.9448 29.5991 63.8082C29.736 63.4418 29.9289 62.9699 30.0533 62.6904C30.1093 62.5538 30.184 62.3426 30.2089 62.2247C30.2338 62.1067 30.3085 61.9079 30.3707 61.79C30.4391 61.672 30.4889 61.5291 30.4889 61.4795C30.4889 61.4298 30.5325 61.3304 30.5822 61.2683C30.632 61.2 30.6756 61.1068 30.6756 61.0572C30.6756 61.0075 30.7253 60.8522 30.7938 60.7094C30.856 60.5666 30.9618 60.2995 31.0302 60.1132C31.2169 59.604 31.7396 58.244 31.8267 58.0329C31.9636 57.7224 32.648 55.9401 32.7227 55.6917C32.7662 55.5613 32.8285 55.4433 32.8596 55.4247C32.8907 55.3998 32.9156 55.3315 32.9156 55.2694C32.9156 55.0893 33.1458 54.9713 33.824 54.8037C34.1911 54.7105 34.4711 54.6111 34.5147 54.5428C34.6329 54.3876 34.6205 53.8659 34.496 53.8163C34.44 53.7976 33.3573 53.779 32.0818 53.779C30.3645 53.779 29.7485 53.7976 29.6925 53.8535C29.6116 53.9342 29.5929 54.3876 29.6676 54.4994C29.7485 54.6298 30.0845 54.754 30.4391 54.7974C30.8 54.8347 31.3165 55.021 31.3849 55.139C31.4098 55.1763 31.3973 55.2694 31.3538 55.3439C31.3102 55.4184 31.2418 55.611 31.1982 55.7662C31.08 56.1823 30.9245 56.6418 30.8311 56.853C30.7876 56.9523 30.6693 57.2877 30.576 57.5982C30.408 58.1695 30.2525 58.6104 30.0471 59.1321C29.9787 59.2935 29.9289 59.4612 29.9289 59.5171C29.9289 59.5668 29.8853 59.6847 29.8418 59.7841C29.792 59.8773 29.6738 60.2064 29.5805 60.5169C29.4871 60.8212 29.3813 61.1752 29.3378 61.2932C29.232 61.5974 29.0205 62.1688 28.8773 62.5538C28.7031 63.0258 28.56 63.4667 28.4916 63.7399C28.4605 63.8703 28.392 64.0504 28.3485 64.1436C28.3049 64.2305 28.2489 64.4044 28.224 64.5286C28.1991 64.659 28.1431 64.7894 28.0933 64.8329C27.9876 64.9198 27.8196 64.8763 27.7885 64.7584C27.7325 64.5596 27.4151 63.5288 27.3156 63.2183C27.2596 63.032 27.1413 62.6656 27.0667 62.411C26.9858 62.1563 26.8738 61.8024 26.8116 61.6347C26.7556 61.4608 26.5876 60.9454 26.4445 60.4858C26.2951 60.0263 26.0711 59.3246 25.9342 58.9271C25.8036 58.5359 25.6978 58.1695 25.6978 58.126C25.6978 58.0763 25.648 57.8963 25.5796 57.7224C25.5173 57.5547 25.3991 57.2007 25.3245 56.9461C25.2498 56.6915 25.144 56.3872 25.0942 56.2692C25.0445 56.1512 24.9822 55.9401 24.9511 55.8035C24.92 55.6606 24.7956 55.2632 24.6773 54.9092C24.5529 54.5553 24.4533 54.2137 24.4533 54.1454C24.4533 54.0833 24.3973 53.9715 24.3289 53.9032C24.2169 53.7914 24.1236 53.779 23.5013 53.779C22.7111 53.779 22.5618 53.8349 22.4871 54.1702C22.4685 54.2758 22.3938 54.4683 22.3316 54.5863C22.2631 54.7043 22.2133 54.8409 22.2133 54.8968C22.2133 54.9465 22.1573 55.1328 22.0889 55.3129C22.0142 55.493 21.9022 55.8035 21.8276 55.996C21.7591 56.1947 21.6596 56.4555 21.6098 56.5735C21.5538 56.6915 21.4791 56.9151 21.4356 57.0703C21.392 57.2256 21.28 57.5423 21.1867 57.7845C20.888 58.5794 20.8382 58.716 20.7449 58.9954C20.6951 59.1507 20.6329 59.3308 20.6018 59.3991C20.4587 59.7344 20.2222 60.3741 20.2222 60.4424C20.216 60.4796 20.1662 60.6287 20.0978 60.7653C20.0293 60.9019 19.9796 61.0572 19.9733 61.1068C19.9733 61.1876 19.9173 61.3428 19.6 62.1626C19.544 62.3178 19.4569 62.5414 19.4133 62.6594C19.376 62.7774 19.2329 63.1686 19.1085 63.5288C18.9778 63.8889 18.8409 64.2429 18.8036 64.3174C18.76 64.392 18.7289 64.5037 18.7289 64.5658C18.7289 64.6342 18.6916 64.7397 18.6418 64.808C18.4613 65.044 18.3369 64.7832 17.9822 63.4667C17.9262 63.2431 17.8453 63.0009 17.8142 62.9388C17.7769 62.8705 17.7271 62.6904 17.7022 62.5352C17.6773 62.3799 17.6151 62.1812 17.5716 62.088C17.5218 61.9949 17.4845 61.8583 17.4845 61.7775C17.4782 61.6968 17.4347 61.5229 17.3849 61.3863C17.3289 61.2497 17.2542 60.9826 17.2045 60.7963C17.1609 60.61 17.0925 60.3679 17.0551 60.2685C17.0178 60.1629 16.9182 59.8276 16.8311 59.5233C16.744 59.2128 16.6382 58.8774 16.6071 58.7781C16.5698 58.6725 16.5076 58.4365 16.464 58.2502C16.4205 58.0639 16.3582 57.8528 16.3209 57.7845C16.2836 57.7162 16.24 57.5547 16.2151 57.4181C16.1902 57.2877 16.1342 57.0952 16.0845 56.9834C16.0409 56.8778 15.9413 56.5549 15.8667 56.263C15.7858 55.9711 15.6862 55.611 15.6365 55.4619C15.5058 55.0707 15.5742 55.0334 16.7005 54.7974C17.3911 54.6546 17.4471 54.6111 17.472 54.2199C17.4845 53.9901 17.4658 53.8659 17.4098 53.8349C17.3165 53.7728 11.8596 53.7604 11.8036 53.8225Z"
      fill="black" />
    <path
      d="M44.3396 53.8784C44.2213 53.9901 44.2151 54.1826 44.3084 54.4497C44.3831 54.667 44.4391 54.6981 44.9867 54.8037C45.2107 54.8471 45.584 54.9341 45.8142 54.99C46.3493 55.1328 46.4053 55.2259 46.2996 55.7662C46.256 55.9774 46.2 56.5549 46.1689 57.0517C46.1316 57.5547 46.0818 58.1198 46.0444 58.3061C46.0133 58.4986 45.9573 59.0575 45.92 59.5543C45.8827 60.0511 45.8267 60.6349 45.7893 60.8584C45.752 61.082 45.7022 61.6099 45.6711 62.0384C45.6151 62.8395 45.4658 64.2616 45.2542 66.0749C45.2356 66.2301 45.1982 66.3792 45.1671 66.4164C45.1049 66.4785 44.6818 66.5841 43.8667 66.7332C43.2133 66.8574 43.12 66.9319 43.12 67.3231C43.12 67.5591 43.1449 67.6398 43.2382 67.6895C43.4062 67.7764 48.496 67.7764 48.664 67.6895C48.8009 67.615 48.8133 67.41 48.72 67.0561C48.664 66.8511 48.6267 66.8201 48.4213 66.789C48.2969 66.7704 47.9982 66.7021 47.7556 66.6338C47.5191 66.5717 47.2204 66.5034 47.096 66.4847C46.9653 66.4599 46.8284 66.404 46.7911 66.3543C46.6978 66.2426 46.6978 65.4725 46.7849 65.0751C46.816 64.926 46.8782 64.3112 46.9156 63.7151C46.9529 63.1189 47.0089 62.4606 47.04 62.2557C47.0711 62.0508 47.1271 61.436 47.1644 60.8895C47.2018 60.343 47.2578 59.6661 47.2889 59.3867C47.3262 59.1072 47.3947 58.3868 47.4382 57.7845C47.488 57.1821 47.544 56.6729 47.5627 56.6542C47.6809 56.53 47.9671 57.0455 48.1662 57.7534C48.1973 57.8714 48.2658 58.0391 48.3093 58.126C48.3591 58.213 48.4151 58.3806 48.44 58.4986C48.4649 58.6166 48.5209 58.7719 48.5644 58.8402C48.608 58.9085 48.664 59.0637 48.6889 59.1817C48.7138 59.2997 48.7698 59.4674 48.8196 59.5543C48.8631 59.6413 48.9316 59.8089 48.9627 59.9269C49 60.0449 49.0996 60.3368 49.1867 60.579C49.28 60.815 49.392 61.1379 49.4418 61.2932C49.4916 61.4484 49.5538 61.6285 49.5849 61.6968C49.616 61.7651 49.672 61.9017 49.7093 62.0073C49.7404 62.1067 49.8462 62.3861 49.9333 62.6283C50.0204 62.8643 50.1324 63.1872 50.1822 63.3425C50.232 63.4977 50.344 63.8144 50.4311 64.0566C50.68 64.7273 50.8356 65.1496 50.9351 65.4477C50.9787 65.5967 51.0471 65.752 51.072 65.7892C51.1031 65.8265 51.1591 65.9693 51.1964 66.1059C51.2338 66.2426 51.3396 66.5468 51.4267 66.789C51.52 67.025 51.6258 67.3231 51.6631 67.4411C51.7067 67.5653 51.8 67.7392 51.8684 67.8323C51.9929 67.9876 52.0364 68 52.4595 68C53.0444 67.9938 53.0071 68.0497 53.5796 66.4785C53.8036 65.8637 54.208 64.7956 54.2889 64.6155C54.3387 64.51 54.4071 64.3237 54.4444 64.1932C54.488 64.0566 54.5564 63.8765 54.6062 63.7896C54.656 63.6964 54.6933 63.5909 54.6933 63.5598C54.6933 63.5226 54.8053 63.2245 54.9422 62.8891C55.0791 62.56 55.1911 62.2557 55.1911 62.2184C55.1911 62.1812 55.2347 62.0632 55.2844 61.9576C55.3716 61.7527 55.5084 61.3925 55.6578 60.9516C55.7013 60.815 55.7822 60.6163 55.8382 60.5169C55.8942 60.4113 55.9378 60.3058 55.9378 60.2685C55.9378 60.2126 56.1182 59.7096 56.28 59.337C56.3547 59.1507 56.5911 58.5297 56.8213 57.8776C56.8898 57.6913 56.9831 57.4491 57.0329 57.3498C57.0827 57.2442 57.1387 57.0703 57.1573 56.9585C57.2507 56.499 57.4187 56.7101 57.4933 57.3622C57.5244 57.6292 57.5929 58.4179 57.6489 59.1196C57.6987 59.8214 57.7547 60.461 57.7733 60.5479C57.792 60.6349 57.848 61.2745 57.8978 61.9763C57.9475 62.678 58.016 63.4418 58.0471 63.684C58.0844 63.92 58.1404 64.6342 58.1778 65.2614C58.24 66.2053 58.24 66.4102 58.1715 66.4537C58.0284 66.5406 57.1573 66.758 56.952 66.758C56.6533 66.758 56.3982 66.876 56.3173 67.0437C56.2053 67.2921 56.2302 67.615 56.3671 67.6895C56.5351 67.7764 62.216 67.7764 62.4462 67.6895C62.6018 67.6274 62.608 67.6088 62.5831 67.3107C62.5644 67.1368 62.5147 66.9567 62.4649 66.9132C62.4151 66.8636 62.1662 66.7953 61.9111 66.758C61.656 66.7207 61.2889 66.6524 61.096 66.6027C60.9031 66.5531 60.6853 66.5096 60.6169 66.5096C60.5422 66.5096 60.4676 66.4847 60.4489 66.4475C60.3742 66.3295 60.2311 65.2489 60.1689 64.4106C60.1378 63.9386 60.0693 63.2804 60.0133 62.9388C59.9636 62.5973 59.92 62.175 59.92 62.0073C59.92 61.8334 59.864 61.2807 59.7955 60.7715C59.7271 60.2685 59.6711 59.6785 59.6711 59.4674C59.6711 59.2625 59.6276 58.8091 59.5778 58.4676C59.5218 58.126 59.4533 57.4429 59.4222 56.9461C59.3849 56.4493 59.3289 55.8904 59.2915 55.6979C59.2107 55.2818 59.2791 55.1017 59.5342 55.0521C59.6276 55.0272 59.9138 54.9589 60.1689 54.8968C60.424 54.8285 60.7724 54.7416 60.9342 54.7043C61.1022 54.6608 61.2764 54.5925 61.3262 54.5428C61.432 54.431 61.4444 53.9591 61.3387 53.8535C61.2827 53.7976 60.704 53.779 59.1298 53.779C56.672 53.779 56.8898 53.7231 56.6409 54.4435C56.4355 55.0521 56.3422 55.3067 56.1618 55.7973C55.9564 56.35 55.328 58.1322 55.2098 58.4986C55.16 58.6539 55.0915 58.834 55.0542 58.9023C55.0169 58.9706 54.9484 59.1507 54.9049 59.3059C54.824 59.5916 54.7058 59.9269 54.4133 60.7032C54.3262 60.9392 54.2142 61.2621 54.1644 61.4174C54.0711 61.7092 53.9404 62.088 53.6667 62.8146C53.5796 63.0506 53.4738 63.3487 53.4427 63.4667C53.4116 63.5847 53.3556 63.7399 53.3182 63.8082C53.2871 63.8765 53.1813 64.156 53.088 64.4292C52.8578 65.0937 52.7707 65.0999 52.5529 64.4789C52.4595 64.2119 52.3413 63.8952 52.2978 63.7772C52.2107 63.5412 52.0676 63.1127 51.9244 62.6594C51.8747 62.5041 51.7627 62.1812 51.6756 61.9452C51.5822 61.703 51.4702 61.3553 51.4142 61.1689C51.3644 60.9826 51.3022 60.7963 51.2773 60.7653C51.2462 60.728 51.1964 60.5914 51.1591 60.4548C51.0844 60.1816 50.8604 59.5295 50.7796 59.337C50.7049 59.1631 50.5369 58.6601 50.4249 58.2502C50.3689 58.0639 50.3067 57.8776 50.2818 57.8466C50.2507 57.8093 50.2009 57.6727 50.1636 57.5361C50.1262 57.3995 50.0204 57.0889 49.9333 56.853C49.84 56.6108 49.7156 56.2506 49.6533 56.0457C49.5911 55.8407 49.4791 55.5054 49.4107 55.3005C49.336 55.0955 49.2364 54.8161 49.1867 54.6795C49.1369 54.5428 49.0498 54.2882 48.9876 54.1205L48.8693 53.81L46.6542 53.7914C44.7004 53.779 44.4267 53.7914 44.3396 53.8784Z"
      fill="black" />
    <path
      d="M71.8542 53.8225C71.7982 53.8349 71.7173 53.9529 71.6738 54.0771C71.6364 54.2013 71.568 54.3752 71.5244 54.4621C71.3813 54.7354 71.12 55.375 71.12 55.4433C71.12 55.4806 71.0827 55.5861 71.0329 55.6855C70.8587 56.0519 70.6907 56.4369 70.5102 56.9151C70.4044 57.1883 70.2738 57.4926 70.224 57.5982C70.168 57.6975 70.1244 57.8155 70.1244 57.8528C70.1244 57.9273 69.9627 58.3123 69.7449 58.7843C69.6827 58.9209 69.6267 59.07 69.6267 59.1072C69.6267 59.1507 69.5707 59.2873 69.5022 59.4115C69.4338 59.5419 69.3778 59.691 69.3778 59.7407C69.3778 59.7965 69.3342 59.8959 69.2844 59.9642C69.2347 60.0263 69.1911 60.1195 69.1911 60.1629C69.1911 60.2375 69.0542 60.5666 68.7493 61.2062C68.6871 61.3491 68.6311 61.4857 68.6311 61.5105C68.6311 61.5788 68.3511 62.2744 68.2329 62.5041C68.1769 62.6097 68.1333 62.7277 68.1333 62.7712C68.1333 62.8084 68.0773 62.9512 68.0089 63.0754C67.9404 63.2059 67.8844 63.3549 67.8844 63.4046C67.8844 63.4605 67.8409 63.5598 67.7911 63.6281C67.7413 63.6902 67.6978 63.7834 67.6978 63.8331C67.6978 63.8828 67.6293 64.0628 67.5484 64.2367C67.4675 64.4106 67.2684 64.8888 67.1067 65.2986C66.6275 66.5034 66.6462 66.4723 66.1609 66.6214C65.9307 66.6897 65.6133 66.7828 65.4578 66.8201C64.9849 66.9443 64.8978 67.025 64.8978 67.3728C64.8978 67.5901 64.9227 67.6895 64.9973 67.7144C65.1715 67.7827 69.8133 67.7578 69.944 67.6895C70.0311 67.6398 70.0622 67.5591 70.0622 67.3728C70.0622 67.0437 69.8507 66.8387 69.4524 66.7891C69.0667 66.7332 68.2951 66.4723 68.2702 66.3854C68.2391 66.2985 68.3635 65.8141 68.4818 65.547C68.5253 65.4415 68.6062 65.249 68.656 65.1123C68.7058 64.9757 68.8178 64.6652 68.9049 64.4292C68.9982 64.187 69.1102 63.8828 69.16 63.7461C69.4151 63.0133 69.5644 62.6345 69.6267 62.5724C69.6764 62.5228 70.3858 62.5041 71.8853 62.5041C73.8329 62.5041 74.088 62.5165 74.1751 62.6035C74.2311 62.6656 74.3244 62.914 74.3867 63.1624C74.4427 63.4108 74.5111 63.6468 74.536 63.684C74.5671 63.7151 74.6169 63.8703 74.6542 64.0256C74.76 64.4603 74.9715 65.162 75.04 65.2986C75.0773 65.367 75.1271 65.547 75.1582 65.7023C75.1893 65.8575 75.2515 66.0749 75.2951 66.1867C75.4382 66.5344 75.32 66.64 74.5795 66.7891C73.9947 66.9133 73.7955 67.0685 73.7955 67.4038C73.7955 67.5591 73.8329 67.6398 73.9138 67.6895C73.9947 67.7268 74.9653 67.7516 76.6453 67.7516C78.8978 67.7516 79.2649 67.7392 79.3333 67.6585C79.4267 67.5467 79.3769 67.0871 79.2587 66.9691C79.2151 66.9257 78.9413 66.8449 78.6551 66.7828C78.0267 66.6586 77.7404 66.5469 77.6658 66.404C77.6347 66.3419 77.5413 66.0935 77.4667 65.8575C77.3235 65.398 77.2178 65.1061 77.0249 64.6466C76.9627 64.4913 76.8942 64.2678 76.8693 64.1498C76.8507 64.0318 76.7947 63.8641 76.7449 63.7772C76.7013 63.6902 76.5893 63.3859 76.496 63.0941C76.3031 62.4669 76.1102 61.9266 76.0169 61.7589C75.9858 61.6968 75.9173 61.4981 75.8738 61.3242C75.8302 61.1565 75.7244 60.815 75.6311 60.579C75.544 60.3368 75.376 59.8649 75.2578 59.5233C74.9218 58.5359 74.5733 57.5361 74.2622 56.6667C74.1004 56.2196 73.9324 55.7352 73.8827 55.5799C73.8391 55.4247 73.7271 55.1017 73.6338 54.8658C73.5467 54.6236 73.4347 54.3131 73.3973 54.164C73.3538 54.015 73.2791 53.8659 73.2293 53.8349C73.1422 53.779 72.0533 53.7666 71.8542 53.8225ZM72.3955 56.4617C72.4453 56.6418 72.5262 56.9027 72.576 57.0393C72.6258 57.1759 72.6693 57.3498 72.6755 57.4305C72.6755 57.5112 72.7067 57.6354 72.744 57.7038C72.7875 57.7783 72.8498 57.977 72.8995 58.1509C72.9431 58.3248 73.0178 58.5918 73.0675 58.747C73.1235 58.9023 73.2231 59.2376 73.2978 59.4922C73.5342 60.3182 73.6898 60.8212 73.7458 60.9827C73.8578 61.2745 73.7395 61.2932 71.9227 61.2932C70.5787 61.2932 70.2489 61.2745 70.1929 61.2062C70.1369 61.1379 70.1742 60.9765 70.3733 60.4796C70.5164 60.1257 70.6844 59.6848 70.7467 59.5047C70.8151 59.3246 70.9209 59.0265 70.9955 58.8402C71.064 58.6539 71.1822 58.3372 71.2507 58.1385C71.3253 57.9459 71.4311 57.6603 71.4933 57.505C71.736 56.8778 71.8604 56.5363 71.904 56.3686C71.9475 56.1761 72.1715 55.9836 72.2587 56.0705C72.2898 56.1016 72.352 56.2754 72.3955 56.4617Z"
      fill="black" />
    <path
      d="M82.1831 53.8162C82.152 53.8411 82.1333 54.0087 82.1333 54.1826C82.1333 54.6111 82.2329 54.6918 82.8551 54.7726C83.1227 54.8098 83.5022 54.8781 83.6889 54.9278C83.8756 54.9775 84.1058 55.0272 84.2053 55.052L84.3733 55.0831V60.759C84.3733 66.9505 84.3982 66.5096 84.0373 66.5096C83.9627 66.5096 83.6889 66.5654 83.4338 66.6275C83.1787 66.6959 82.8302 66.7642 82.6498 66.789C82.2204 66.8449 82.1209 66.9629 82.1458 67.3852L82.1644 67.7205L85.3191 67.7391C87.2729 67.7454 88.5298 67.7267 88.6293 67.6895C88.7662 67.6398 88.7911 67.5963 88.7911 67.3603C88.7911 66.9815 88.6667 66.8325 88.3058 66.789C88.144 66.7704 87.7644 66.7021 87.4533 66.6338C87.1484 66.5717 86.7938 66.5033 86.6693 66.4847C86.464 66.4475 86.4391 66.4226 86.4018 66.2115C86.3831 66.0873 86.3644 65.0005 86.3644 63.802C86.3644 61.8458 86.3769 61.6098 86.4702 61.5353C86.5387 61.4732 86.8062 61.4422 87.416 61.4359C87.8827 61.4297 88.312 61.4422 88.3742 61.4546C88.4302 61.4732 88.5422 61.6036 88.6231 61.7402C88.7662 62.0073 88.8284 62.1066 89.0898 62.5227C89.1831 62.6655 89.7058 63.5225 90.2533 64.4292C90.8009 65.3359 91.3671 66.2612 91.5102 66.4909C91.6596 66.7269 91.8151 66.9815 91.8587 67.0685C92.1076 67.5404 92.232 67.6895 92.4187 67.7205C92.5307 67.7391 93.2773 67.7516 94.08 67.7391L95.5422 67.7205L95.5609 67.3914C95.5733 67.2051 95.5484 67.0188 95.5111 66.9753C95.4738 66.9256 95.2933 66.8449 95.1191 66.7828C94.9387 66.7269 94.7707 66.6586 94.7333 66.6338C94.7022 66.6027 94.5591 66.553 94.4222 66.5158C94.0676 66.4226 93.7876 66.2301 93.6444 66.0003C93.4578 65.6774 92.8356 64.69 92.4747 64.1311C92.2009 63.715 91.7467 62.9947 91.3111 62.2805C91.2178 62.1315 90.9191 61.6719 90.7387 61.4049C90.608 61.2124 90.5956 61.1503 90.6578 61.0758C90.7013 61.0261 90.7636 60.9826 90.7947 60.9826C90.832 60.9826 91.0933 60.8646 91.3858 60.7218C92.2693 60.2809 92.9351 59.5233 93.1529 58.6973C93.2587 58.3123 93.2587 57.0082 93.1529 56.5486C93.0409 56.0332 92.5867 55.2756 92.176 54.9092C91.7902 54.5676 91.0436 54.1702 90.5396 54.0398C90.3467 53.9963 90.0791 53.928 89.9422 53.8907C89.6498 53.8162 82.2516 53.7417 82.1831 53.8162ZM88.7227 55.021C89.5813 55.1327 90.4213 55.5488 90.776 56.0456C91.2862 56.7536 91.4604 57.6664 91.2178 58.3744C91.056 58.8588 90.9938 58.9643 90.6453 59.3121C90.3342 59.6288 89.6996 59.9642 89.2578 60.0449C89.0836 60.0759 88.8658 60.138 88.76 60.1753C88.4862 60.2809 86.6756 60.3368 86.5013 60.2436L86.3644 60.1691V57.6602C86.3644 55.4619 86.3769 55.139 86.464 55.0582C86.5449 54.9775 86.7191 54.9589 87.4098 54.9589C87.8764 54.9589 88.4676 54.9899 88.7227 55.021Z"
      fill="black" />
    <path
      d="M98.2987 53.8411C98.2178 53.8908 98.1867 53.9901 98.1867 54.1827C98.1867 54.5863 98.3111 54.6795 98.9396 54.7664C99.4622 54.8409 100.159 54.9962 100.402 55.0831C100.489 55.1204 100.545 55.2073 100.57 55.375C100.626 55.7041 100.62 65.9321 100.564 66.1929C100.526 66.3481 100.476 66.4165 100.364 66.4475C100.047 66.5407 99.0142 66.7518 98.728 66.7891C98.3298 66.8387 98.1867 66.9878 98.1867 67.348C98.1867 67.5591 98.2178 67.6398 98.3049 67.6895C98.4356 67.7578 104.571 67.7827 104.745 67.7144C104.82 67.6833 104.844 67.5902 104.844 67.3231C104.844 67.1306 104.82 66.9443 104.795 66.9008C104.77 66.8574 104.54 66.7953 104.284 66.7642C104.029 66.727 103.637 66.6524 103.413 66.6028C103.189 66.5531 102.934 66.5096 102.847 66.5096C102.754 66.5096 102.648 66.4723 102.611 66.4289C102.567 66.373 102.542 65.5967 102.542 63.9573C102.536 61.9266 102.548 61.5664 102.629 61.5105C102.685 61.467 103.077 61.4422 103.644 61.4422L104.564 61.4484L104.795 61.821C104.919 62.0259 105.075 62.2806 105.137 62.3861C105.554 63.1065 106.014 63.8703 106.244 64.2429C106.394 64.4789 106.661 64.9136 106.836 65.2055C107.01 65.4974 107.234 65.8575 107.333 66.0128C107.427 66.168 107.582 66.4289 107.676 66.6028C107.906 67.0375 108.267 67.5839 108.379 67.6709C108.453 67.733 108.87 67.7516 109.984 67.7516C111.658 67.7516 111.689 67.7454 111.689 67.3542C111.689 67.0996 111.502 66.8512 111.272 66.7891C111.179 66.7704 110.986 66.6959 110.836 66.6276C110.693 66.5655 110.544 66.5096 110.5 66.5096C110.308 66.5096 109.884 66.1805 109.692 65.8762C109.58 65.6961 109.331 65.3111 109.144 65.0192C108.957 64.7273 108.659 64.2678 108.484 63.9883C108.316 63.7089 107.949 63.1313 107.676 62.7028C106.867 61.4236 106.773 61.2683 106.773 61.1565C106.773 61.0882 106.879 61.0013 107.078 60.9144C108.124 60.4672 108.64 60.0325 109.013 59.2749C109.337 58.6291 109.418 58.0764 109.331 57.12C109.25 56.2071 108.995 55.6358 108.385 55.0272C107.9 54.5304 107.277 54.2075 106.4 53.9777C105.809 53.8225 105.809 53.8225 102.107 53.7976C99.5431 53.7852 98.3733 53.7976 98.2987 53.8411ZM105.218 55.0769C105.996 55.3005 106.344 55.4806 106.724 55.8594C107.228 56.3686 107.514 57.3808 107.364 58.1447C107.172 59.1631 106.481 59.7717 105.131 60.1195C104.583 60.2623 102.766 60.3554 102.617 60.2499C102.499 60.1691 102.499 55.1825 102.617 55.0396C102.685 54.9527 102.847 54.9465 103.849 54.9775C104.484 54.9962 105.1 55.0396 105.218 55.0769Z"
      fill="black" />
    <path
      d="M114.657 53.8224C114.632 53.8411 114.613 54.0212 114.613 54.2199C114.613 54.6546 114.626 54.667 115.36 54.7664C115.895 54.8471 116.586 54.9961 116.841 55.0893L116.978 55.1452V60.728C116.978 66.8014 116.996 66.5096 116.648 66.5096C116.573 66.5096 116.262 66.5654 115.951 66.6276C115.646 66.6959 115.229 66.7828 115.036 66.8201C114.632 66.9008 114.588 66.9629 114.626 67.4473L114.644 67.7205L117.917 67.7391C120.599 67.7516 121.203 67.7391 121.265 67.6708C121.308 67.6149 121.315 67.4597 121.284 67.2175L121.24 66.8511L120.742 66.7828C120.468 66.7393 120.07 66.6648 119.865 66.6089C119.653 66.553 119.398 66.5096 119.299 66.5096C118.882 66.5096 118.907 66.8697 118.907 60.7156C118.907 57.1759 118.932 55.139 118.969 55.1141C119.068 55.052 119.927 54.8409 120.35 54.7726C121.259 54.6297 121.234 54.636 121.296 54.3813C121.333 54.2323 121.333 54.0833 121.296 53.9777L121.24 53.81L117.967 53.7914C116.169 53.7852 114.676 53.7976 114.657 53.8224Z"
      fill="black" />
    <path
      d="M139.788 53.8783C139.701 53.9591 139.689 54.2199 139.689 55.7662C139.689 56.7536 139.708 57.5982 139.726 57.6541C139.764 57.7596 140.212 57.7969 140.348 57.7037C140.386 57.6789 140.498 57.4615 140.591 57.2256C140.684 56.9834 140.828 56.648 140.908 56.4741C140.989 56.3003 141.058 56.1264 141.058 56.0829C141.058 56.0457 141.114 55.909 141.182 55.7848C141.251 55.6544 141.307 55.5054 141.307 55.4557C141.307 55.406 141.375 55.257 141.462 55.1266L141.624 54.8968H143.036C144.057 54.8968 144.474 54.9154 144.53 54.9713C144.586 55.0272 144.604 56.381 144.604 60.6783C144.604 66.8449 144.623 66.5096 144.25 66.5096C144.169 66.5096 143.883 66.5655 143.621 66.6276C143.354 66.6959 142.98 66.7704 142.788 66.789C142.588 66.8139 142.402 66.8698 142.364 66.9132C142.259 67.0436 142.215 67.5529 142.302 67.6584C142.371 67.7392 142.8 67.7516 145.6 67.7516C147.373 67.7516 148.867 67.733 148.923 67.7143C149.047 67.6646 149.06 67.0809 148.948 66.9257C148.892 66.8636 148.692 66.8014 148.369 66.758C148.095 66.7207 147.716 66.6524 147.529 66.6027C147.342 66.553 147.112 66.5096 147.019 66.5096C146.919 66.5096 146.788 66.4537 146.72 66.3854C146.596 66.2612 146.596 66.1804 146.596 60.7156C146.596 55.7972 146.608 55.1576 146.695 55.0334C146.788 54.8968 146.813 54.8968 148.114 54.8968C149.346 54.8968 149.452 54.903 149.601 55.021C149.682 55.0893 149.775 55.2197 149.8 55.3129C149.819 55.406 149.987 55.791 150.167 56.1699C150.665 57.2007 150.827 57.5547 150.827 57.6168C150.827 57.7596 151.468 57.8093 151.555 57.6727C151.58 57.6354 151.604 56.7784 151.604 55.7724C151.611 54.313 151.592 53.928 151.524 53.8659C151.455 53.7914 150.453 53.779 145.662 53.779C140.492 53.779 139.876 53.7914 139.788 53.8783Z"
      fill="black" />
    <path
      d="M153.757 53.8659C153.708 53.9218 153.689 54.4931 153.701 55.8345L153.72 57.7224H154.031C154.299 57.7224 154.348 57.7037 154.417 57.5671C154.678 57.033 154.747 56.8716 154.747 56.8033C154.747 56.7598 154.803 56.6232 154.871 56.4928C154.94 56.3686 154.996 56.2257 154.996 56.1885C154.996 56.145 155.07 55.9649 155.151 55.7972C155.238 55.6234 155.307 55.4371 155.307 55.3812C155.307 55.3253 155.381 55.1949 155.468 55.0893L155.63 54.8968H157.055C158.405 54.8968 158.48 54.903 158.542 55.021C158.586 55.1017 158.598 56.9213 158.592 60.7653C158.573 66.9008 158.598 66.5034 158.225 66.5096C158.138 66.5096 157.858 66.5655 157.603 66.6276C157.348 66.6959 156.98 66.7704 156.781 66.789C156.352 66.8449 156.24 66.9629 156.24 67.3852C156.24 67.5963 156.271 67.6895 156.34 67.7143C156.396 67.733 157.889 67.7516 159.662 67.7516C162.182 67.7516 162.898 67.733 162.948 67.6709C163.01 67.5963 162.997 67.1616 162.929 66.9443C162.904 66.876 162.717 66.8139 162.257 66.7393C161.261 66.5717 160.95 66.5034 160.782 66.4226L160.627 66.3481L160.608 60.7218C160.596 55.6668 160.602 55.0831 160.695 54.9962C160.776 54.9092 160.994 54.8968 162.114 54.8968C163.433 54.8968 163.439 54.8968 163.607 55.052C163.694 55.1328 163.769 55.2383 163.769 55.2756C163.769 55.3563 163.98 55.8469 164.086 56.0146C164.117 56.0643 164.161 56.1512 164.18 56.2009C164.204 56.2506 164.316 56.5052 164.435 56.7598C164.559 57.0144 164.708 57.3436 164.771 57.4926L164.889 57.7596L165.212 57.741L165.542 57.7224L165.561 55.8345C165.573 54.4931 165.555 53.9218 165.505 53.8659C165.399 53.7355 153.863 53.7355 153.757 53.8659Z"
      fill="black" />
    <path
      d="M165.492 64.2305C164.752 64.4851 164.204 65.3359 164.285 66.1059C164.354 66.758 164.684 67.2734 165.262 67.615C165.511 67.7578 165.604 67.7764 166.133 67.7827C166.65 67.7827 166.756 67.764 166.973 67.6336C167.359 67.4038 167.627 67.1244 167.757 66.8325C167.82 66.6897 167.9 66.5717 167.938 66.5717C167.975 66.5717 168 66.3419 168 65.9569C168 65.4725 167.981 65.3359 167.907 65.3111C167.857 65.2862 167.776 65.1744 167.726 65.0564C167.508 64.541 166.737 64.0753 166.127 64.0939C165.978 64.1001 165.692 64.1622 165.492 64.2305ZM166.581 64.4851C166.836 64.541 167.197 64.808 167.334 65.0316C167.751 65.7209 167.708 66.4537 167.204 67.0126C166.83 67.4287 166.668 67.5032 166.115 67.5032C165.679 67.5032 165.636 67.4908 165.343 67.2734C164.92 66.9629 164.758 66.6959 164.696 66.1991C164.615 65.5532 164.74 65.1869 165.138 64.8391C165.567 64.4665 166.046 64.2678 166.258 64.3671C166.345 64.4106 166.488 64.4603 166.581 64.4851Z"
      fill="black" />
    <path
      d="M165.505 64.9695C165.399 65.1682 165.38 66.7828 165.48 66.9256C165.623 67.1181 165.76 66.9815 165.76 66.6462C165.76 66.4847 165.797 66.2984 165.841 66.2425C165.947 66.0935 166.158 66.168 166.283 66.404C166.556 66.9132 166.631 67.0064 166.805 67.0064C166.961 67.0064 166.942 66.8325 166.762 66.553C166.656 66.3978 166.569 66.2425 166.569 66.1991C166.569 66.1618 166.668 66.0376 166.787 65.9258C167.017 65.7085 167.073 65.4476 166.942 65.1992C166.824 64.9881 166.426 64.8329 165.984 64.8329C165.629 64.8329 165.567 64.8515 165.505 64.9695ZM166.513 65.2676C166.675 65.3545 166.662 65.6091 166.494 65.7271C166.314 65.8513 165.984 65.8513 165.86 65.7271C165.741 65.6153 165.729 65.3855 165.835 65.28C165.928 65.1868 166.345 65.1806 166.513 65.2676Z"
      fill="black" />
  </g>
  <defs>
    <clipPath id="clip0_421_1309">
      <rect width="168" height="68" fill="white" />
    </clipPath>
  </defs>
</svg>