<?xml version="1.0" encoding="utf-8"?>
<!-- Generator: Adobe Illustrator 27.5.0, SVG Export Plug-In . SVG Version: 6.00 Build 0)  -->
<svg version="1.1" id="Layer_1" xmlns="http://www.w3.org/2000/svg" xmlns:xlink="http://www.w3.org/1999/xlink" x="0px" y="0px"
	 viewBox="0 0 373.5 161.6" style="enable-background:new 0 0 373.5 161.6;" xml:space="preserve">
<style type="text/css">
	.st0{clip-path:url(#SVGID_00000153707641878775810040000016744614121591710643_);}
	.st1{fill:#E6E6E6;}
	.st2{fill:#3F3D56;}
	.st3{fill:#FE4C02;}
</style>
<g>
	<g>
		<defs>
			
				<rect id="SVGID_1_" x="7.4" y="-10.4" transform="matrix(0.9937 -0.112 0.112 0.9937 -6.1953 21.3295)" width="358.7" height="152.4"/>
		</defs>
		<clipPath id="SVGID_00000011013020443545100170000009101382227655024264_">
			<use xlink:href="#SVGID_1_"  style="overflow:visible;"/>
		</clipPath>
		<g style="clip-path:url(#SVGID_00000011013020443545100170000009101382227655024264_);">
			<path class="st1" d="M214.4,17.4c0,0.2,0.3,0.4,0.6,0.4h105.6c0.3,0,0.6-0.2,0.6-0.4s-0.3-0.4-0.6-0.4H215
				C214.7,16.9,214.4,17.1,214.4,17.4z"/>
			<path class="st2" d="M147.7,95.1l4.1,27.4l-2.5,0.3l0.4,3.1l7.1-0.8l-0.4-3.1l-2.1,0.2l-3-27.5L147.7,95.1z"/>
			<path class="st2" d="M147.6,118.5c1.1-0.1,2,0.7,2.2,1.7l0.9,8c0.1,1.1-0.7,2-1.7,2.2c-1.1,0.1-2-0.7-2.2-1.7l-0.9-8
				C145.8,119.6,146.5,118.6,147.6,118.5z"/>
			<path class="st2" d="M157.5,117.4c1.1-0.1,2,0.7,2.2,1.7l0.9,8c0.1,1.1-0.7,2-1.7,2.2c-1.1,0.1-2-0.7-2.2-1.7l-0.9-8
				C155.6,118.5,156.4,117.5,157.5,117.4z"/>
			<path class="st3" d="M168.8,75.3L128.6,78l5.9-3.6l35.1-3.4L168.8,75.3z"/>
			<path class="st3" d="M9.8,97.3l4.6-2.4l150.3-13l5.9-3.6L170,96.2L49.5,96.9L9.8,97.3z"/>
			<path class="st2" d="M49.5,103.3l0.1-6.2l120.5-0.7l0.4,9L49.5,103.3z"/>
			<path class="st2" d="M131.6,112.1c6.8-0.8,11.7-7.3,10.9-14.5s-7-12.5-13.8-11.7s-11.7,7.3-10.9,14.5
				C118.6,107.7,124.8,112.9,131.6,112.1z"/>
			<path class="st3" d="M130.9,105.8c5-0.6,8.6-5.1,8.1-10.1c-0.6-5-5.1-8.6-10.1-8.1c-5,0.6-8.6,5.1-8.1,10.1
				C121.4,102.7,125.9,106.3,130.9,105.8z"/>
			<path class="st2" d="M231.3,85.6l2.1,27.6l2.5-0.3l0.4,3.1l-7.1,0.8l-0.4-3.1l2.1-0.2L227.7,86L231.3,85.6z"/>
			<path class="st2" d="M236.6,108.4L236.6,108.4c-1.1,0.1-1.8,1.1-1.7,2.2l0.9,8c0.1,1.1,1.1,1.8,2.2,1.7l0,0
				c1.1-0.1,1.8-1.1,1.7-2.2l-0.9-8C238.7,109.1,237.7,108.3,236.6,108.4z"/>
			<path class="st2" d="M226.8,109.6L226.8,109.6c-1.1,0.1-1.8,1.1-1.7,2.2l0.9,8c0.1,1.1,1.1,1.8,2.2,1.7l0,0
				c1.1-0.1,1.8-1.1,1.7-2.2l-0.9-8C228.8,110.2,227.9,109.4,226.8,109.6z"/>
			<path class="st3" d="M206.4,71.1l39.8-6.3l-6.6-2.2l-35,4.5L206.4,71.1z"/>
			<path class="st3" d="M191.5,67.1l-6.3-39.8l-2.2,6.6l4.5,35L191.5,67.1z"/>
			<path class="st3" d="M366.3,57.2l-5-1.3L211.8,76.7l-6.6-2.2l4.6,17.4l117.6-26.1L366.3,57.2z"/>
			<path class="st2" d="M328.9,71.8l-1.4-6L209.9,91.9l1.7,8.9L328.9,71.8z"/>
			<path class="st2" d="M250.8,98.7c6.8-0.8,11.7-7.3,10.9-14.5s-7-12.5-13.8-11.7S236.2,79.8,237,87
				C237.8,94.2,244,99.5,250.8,98.7z"/>
			<path class="st3" d="M250.1,92.3c5-0.6,8.6-5.1,8.1-10.1c-0.6-5-5.1-8.6-10.1-8.1c-5,0.6-8.6,5.1-8.1,10.1
				C240.5,89.3,245.1,92.9,250.1,92.3z"/>
			<path class="st3" d="M209.7,65.7l-0.1,4.4l2.3,23.4c0.2,1.7,0.2,3.5-0.1,5.2c-0.6,5-2.7,9.7-6.3,13.3c-3.2,3.3-7.8,6.1-14.3,6.4
				c-17.2,0.9-20.4-13.5-20.4-13.5l-2.3-26.5l-0.3-3.6v-6.6c0,0,0-18.7,19.3-20.3C206.8,46.2,209.7,65.7,209.7,65.7z"/>
			<path class="st1" d="M171.9,63.8l3.2-6.7l4.8-2.1l16.9-1.9l4.3,1.1l4.5,5.8l-7.2-2.3L179,59.8L171.9,63.8z"/>
			<path class="st2" d="M191.3,106.9l2.7,17.6l-1.6,0.2l0.2,2l4.5-0.5l-0.2-2l-1.3,0.1l-1.9-17.7L191.3,106.9z"/>
			<path class="st2" d="M191.2,122c0.7-0.1,1.3,0.4,1.4,1.1l0.6,5.2c0.1,0.7-0.4,1.3-1.1,1.4c-0.7,0.1-1.3-0.4-1.4-1.1l-0.6-5.2
				C190,122.7,190.5,122,191.2,122z"/>
			<path class="st2" d="M197.5,121.2c0.7-0.1,1.3,0.4,1.4,1.1l0.6,5.2c0.1,0.7-0.4,1.3-1.1,1.4c-0.7,0.1-1.3-0.4-1.4-1.1l-0.6-5.2
				C196.3,121.9,196.8,121.3,197.5,121.2z"/>
			<path class="st3" d="M180.1,51.1L178,64.4l0.7,0.1l2.1-13.3L180.1,51.1z"/>
			<path class="st3" d="M196.6,51.3l-0.7,0.2l4.1,12.9l0.7-0.2L196.6,51.3z"/>
			<path class="st3" d="M268.1,22.4c2.6-0.3,4.4-2.6,4.1-5.2c-0.3-2.6-2.6-4.4-5.2-4.1c-2.6,0.3-4.4,2.6-4.1,5.2
				C263.2,20.8,265.6,22.6,268.1,22.4z"/>
			<path class="st3" d="M140.8,52.2c2.6-0.3,4.4-2.6,4.1-5.2c-0.3-2.6-2.6-4.4-5.2-4.1c-2.6,0.3-4.4,2.6-4.1,5.2
				C135.9,50.6,138.2,52.5,140.8,52.2z"/>
			<path class="st1" d="M33.2,141.7c0,0.2,0.3,0.4,0.6,0.4h105.6c0.3,0,0.6-0.2,0.6-0.4s-0.3-0.4-0.6-0.4H33.8
				C33.5,141.3,33.2,141.5,33.2,141.7z"/>
			<path class="st3" d="M86.7,146.3c2.6-0.3,4.4-2.6,4.1-5.2c-0.3-2.6-2.6-4.4-5.2-4.1c-2.6,0.3-4.4,2.6-4.1,5.2
				C81.8,144.8,84.1,146.6,86.7,146.3z"/>
		</g>
	</g>
</g>
</svg>
