<svg xmlns="http://www.w3.org/2000/svg" xml:space="preserve" id="Layer_1" x="0" y="0" version="1.1" viewBox="0 0 161.2 129.3">
  <style>
    .st2{fill:#ff6582}.st3{fill:#fff}
  </style>
  <path fill="#3f3d56" d="M136.4 129.2 5.1 104.4c-1.6-.3-3.1-1.3-4-2.6s-1.3-3.1-1-4.7l17.3-92c.3-1.6 1.3-3.1 2.6-4 1.4-.9 3.1-1.3 4.7-1L156 24.9c1.4.3 2.7 1 3.6 2.1.9 1.1 1.5 2.4 1.5 3.8 0 .5 0 1-.1 1.4l-17.3 91.9c-.3 1.6-1.3 3.1-2.6 4-1.4 1-3 1.4-4.7 1.1zM24.4 2.1c-1.1-.2-2.3 0-3.2.7-.9.6-1.6 1.6-1.8 2.7L2.1 97.4c-.2 1.1 0 2.3.7 3.2.6.9 1.6 1.6 2.7 1.8l131.3 24.8c1.1.2 2.3 0 3.2-.7.9-.6 1.6-1.6 1.8-2.7l17.3-91.9c.1-.3.1-.6.1-1 0-1-.4-1.9-1-2.6-.6-.7-1.5-1.2-2.4-1.4L24.4 2.1z"/>
  <path fill="#fe4c02" d="M160.2 30.8c-.1-1.2-.5-2.3-1.3-3.2-.8-.9-1.8-1.5-3-1.7L24.6 1.1c-1.4-.3-2.8 0-4 .8s-2 2-2.2 3.4L1.1 97.2c-.3 1.4 0 2.8.8 4 .8 1.2 2 2 3.4 2.2l131.3 24.8c1.4.3 2.8 0 4-.8 1.2-.8 2-2 2.2-3.4l17.3-92c.1-.4.1-.8.1-1.2z"/>
  <path d="M73.1 18.2c-1.4-1.1-3.2-1.8-5-1.5-1.7.3-3.1 1.5-4 2.9-.9 1.4-1.5 3.1-2 4.7-.2.6-.4 1.5.2 1.9.2.1.4.2.7.2.2 0 .5-.1.7-.2.4-.3.7-.6 1-1 1.3-1.6 2.9-2.8 4.8-3.5s3.9-.9 5.9-.6l1.4 1c-1.2-1.4-2.3-2.8-3.7-3.9z" class="st2"/>
  <path d="M87.6 35.2c-.8-2.3-1.9-4.7-4-5.8-2.5-1.3-5.5-.3-8.1.8-7.7 3.2-15.3 6.8-22.6 10.9v.1l15 1.8c3.6.4 7.4.8 10.8-.3 1.3-.4 2.6-1.1 4-.9 1.7.2 2.9 1.7 3.9 3.1 5.5 8.6 5.3 20 11.8 27.9-2.6-12.7-6.2-25.3-10.8-37.6zM30.4 75.4c3.6.8 7.1 1.8 10.5 3 10.3 3.7 19.7 9.4 27.9 16.8 2.7 2.4 5.2 5.1 7.6 7.8.3.3.6.7.9 1 .2.2.6 0 .4-.3-2.3-2.8-4.8-5.5-7.5-8s-5.5-4.8-8.5-7c-3-2.1-6.1-4.1-9.3-5.8-3.2-1.7-6.6-3.3-10-4.6-3.4-1.3-6.9-2.4-10.5-3.2-.4-.1-.9-.2-1.3-.3h-.2l-.1.1v.2c0 .2 0 .3.1.3zm1.7-14.1c6.3 1.7 12.6 3.3 18.9 5.3 6.3 1.9 12.4 4.2 18.3 6.9 5.3 2.4 10.3 5.3 15 8.7 4.4 3.2 8.4 6.9 11.9 11s6.3 8.6 8.5 13.5c.3.6.5 1.2.8 1.9.1.3.5.1.4-.2-1.9-5-4.6-9.7-8-13.9-3.4-4.2-7.3-8-11.6-11.3-4.5-3.4-9.3-6.4-14.4-8.9-5.9-2.9-12-5.3-18.2-7.3-6.3-2-12.7-3.8-19-5.4l-2.4-.6c-.4-.2-.4.2-.2.3z" class="st3"/>
  <path d="M31.2 62.7c6.3 1.7 12.6 3.3 18.9 5.3 6.3 1.9 12.4 4.2 18.3 6.9 5.3 2.4 10.3 5.3 15 8.7 4.4 3.2 8.4 6.9 11.9 11s6.3 8.6 8.5 13.5c.3.6.5 1.2.8 1.9.1.3.5.1.4-.2-1.9-5-4.6-9.7-8-13.9-3.4-4.2-7.3-8-11.6-11.3-4.5-3.4-9.3-6.4-14.4-8.9-5.9-2.9-12-5.3-18.2-7.3-6.3-2-12.7-3.8-19-5.4l-2.4-.6c-.4-.2-.5.2-.2.3z" class="st3"/>
  <path d="M118.2 105.6c-.6-1.1-1.1-2.2-1.7-3.3-4.6-9-8.7-18.2-12.5-27.5-2.5-6.4-4.9-12.8-7-19.3-1-3.1-2-6.2-2.9-9.3-.7-2.4-1.4-4.9-2.1-7.3l-.6-2.1c-.4-1.6-.8-3.3-1.3-4.9-.5-1.9-1.2-3.8-2.6-5.3-.6-.7-1.4-1.2-2.3-1.4-1.3-.3-2.5 0-3.7.3-8.9 2.7-17.4 6.5-25.4 11.3-8 4.7-15.4 10.4-22.1 16.8-.2.2-.5-.1-.3-.3.8-.8 1.6-1.6 2.5-2.3 10.4-9.5 22.3-17 35.3-22.4 2.2-.9 4.4-1.7 6.6-2.5 1.1-.4 2.3-.8 3.4-1.1 1.1-.3 2.3-.6 3.5-.4 4 .7 5.2 5.6 6 8.9.3 1 .5 2.1.8 3.1 1 3.9 2.1 7.8 3.3 11.7.7 2.4 1.5 4.8 2.3 7.1 2.4 7.4 5.1 14.7 8.1 21.9 3.9 9.6 8.3 18.9 13.1 28.1.1.2-.3.4-.4.2z" class="st3"/>
  <path d="m102.7 64.9 6.3-1 3.1-.5c1-.2 2-.4 3.1-.5.9-.1 1.8.1 2.6.5.7.4 1.3 1 1.8 1.7s.9 1.4 1.3 2.1l1.5 2.7 6 11.1c2 3.7 3.9 7.4 5.8 11.1 1.9 3.7 3.8 7.5 5.7 11.2.2.5.5.9.7 1.4.1.3.6.1.4-.2-1.9-3.8-3.8-7.6-5.8-11.3-2-3.8-3.9-7.6-5.9-11.3-2-3.8-4-7.5-6-11.2-.5-.9-1-1.9-1.5-2.8-.4-.8-.9-1.6-1.3-2.3-.9-1.4-2.1-2.7-3.8-3-1-.2-2-.1-3 .1-1.1.2-2.1.3-3.2.5l-6.4 1.1-1.6.3c-.1-.1-.1.3.2.3z" class="st3"/>
  <path d="m80.1 23.1-.4.1c-.6-2.3-2-4.3-3.9-5.7-1.9-1.4-4.2-2.2-6.6-2.2-2.4 0-4.7.8-6.6 2.2-1.9 1.4-3.2 3.5-3.9 5.8-.6 2.3-.5 4.8.5 7.1l-.4.2c-1-2.3-1.2-4.9-.5-7.4.7-2.4 2.1-4.5 4-6 2-1.5 4.4-2.3 6.8-2.3 2.5 0 4.9.8 6.8 2.3 2.2 1.5 3.6 3.6 4.2 5.9z" class="st2"/>
  <path d="M49 29.5c-1.4-1-3-1.7-4.7-1.9-1.7-.2-3.4.1-5 .8 5.1 1.9 10.1 4.1 14.9 6.6-1.9-1.7-3.2-3.9-5.2-5.5zm-9.8-1.1-.7.4c.3-.2.5-.3.7-.4zM118.9 68c-.4-.8-.9-1.7-1.8-2.1l-.8-.1c4.1 12.1 10.7 23.2 19.2 32.7L118.9 68z" class="st3"/>
  <path d="M56.1 34.4c-.2-.3-.4-.6-.5-.9-1.4-2.4-3-4.7-5.3-6.4-1.1-.8-2.3-1.3-3.7-1.6-1.4-.2-2.8-.2-4.1.1-.6.1-1.3.3-1.9.5-.7.2-1.4.4-2.1.7-1.3.4-2.7.9-4 1.4-2.6 1-5.2 2.1-7.7 3.4-1.3.7-2.6 1.3-3.9 2.1-1.2.7-2.3 1.4-3.5 2.1-.2.2-.5-.2-.3-.4l.9-.6c.9-.5 1.7-1 2.6-1.5 1.6-.9 3.2-1.8 4.9-2.6 2.6-1.2 5.2-2.4 7.9-3.4 1.3-.5 2.7-1 4.1-1.4.4-.1.8-.3 1.2-.4 1-.3 1.9-.5 2.9-.6 1.4-.2 2.8-.1 4.2.4 1.3.4 2.5 1.1 3.5 2 2.2 1.8 3.7 4.3 5.2 6.8.2.3-.2.6-.4.3z" class="st3"/>
  <path fill="#2f2e41" d="m24.3 33.1-.7-.1 4-21L50 16.3l-.1.6-21.8-4.1-3.8 20.3zm120.9 22.8-.6-.1 3.8-20.3-21.8-4.1.1-.6 22.5 4.2-4 20.9zm-11.6 61.3-22.5-4.2.1-.6 21.8 4.1 3.8-20.3.6.1-3.8 20.9zM34.5 98.5 12 94.3l4-21 .6.1-3.8 20.3 21.8 4.1-.1.7z"/>
</svg>
