<svg xmlns="http://www.w3.org/2000/svg" xmlns:xlink="http://www.w3.org/1999/xlink" xml:space="preserve" id="Layer_1" x="0" y="0" version="1.1" viewBox="0 0 204.3 174.8">
  <style>
    .st1{fill:#fff}.st2{fill:#f2f2f2}.st3{fill:#e6e6e6}.st4{fill:#3f3d56}.st5{fill:#ccc}.st6{fill:#ff6584}.st7{fill:#fe4c02}
  </style>
  <defs>
    <path id="SVGID_1_" d="M14.9 21.8h174.5v131.1H14.9z" transform="matrix(.9599 -.2805 .2805 .9599 -20.408 32.155)"/>
  </defs>
  <clipPath id="SVGID_00000003064060972354315990000010319312212162829445_">
    <use xlink:href="#SVGID_1_" overflow="visible"/>
  </clipPath>
  <g clip-path="url(#SVGID_00000003064060972354315990000010319312212162829445_)">
    <path d="M194.4 118.9 68.3 155.8c-1.9.6-4 .3-5.7-.6-1.8-1-3.1-2.6-3.6-4.5L39.3 83.2c-.6-1.9-.3-4 .6-5.7 1-1.8 2.6-3.1 4.5-3.6L170.5 37c1.9-.6 4-.3 5.7.6 1.8 1 3.1 2.6 3.6 4.5l19.7 67.5c.6 1.9.3 4-.6 5.7-.9 1.8-2.5 3.1-4.5 3.6z" class="st1"/>
    <path d="M194.4 118.9 68.3 155.8c-1.9.6-4 .3-5.7-.6-1.8-1-3.1-2.6-3.6-4.5L39.3 83.2c-.6-1.9-.3-4 .6-5.7 1-1.8 2.6-3.1 4.5-3.6L170.5 37c1.9-.6 4-.3 5.7.6 1.8 1 3.1 2.6 3.6 4.5l19.7 67.5c.6 1.9.3 4-.6 5.7-.9 1.8-2.5 3.1-4.5 3.6zM44.5 74.2c-1.8.5-3.3 1.8-4.2 3.4-.9 1.6-1.1 3.6-.6 5.4l19.7 67.5c.5 1.8 1.8 3.3 3.4 4.2 1.6.9 3.6 1.1 5.4.6l126.1-36.8c1.8-.5 3.3-1.8 4.2-3.4.9-1.6 1.1-3.6.6-5.4l-19.7-67.5c-.5-1.8-1.8-3.3-3.4-4.2-1.6-.9-3.6-1.1-5.4-.6L44.5 74.2z" class="st2"/>
    <path d="M192.9 113.7 66.8 150.5c-.5.2-1.1.1-1.6-.2-.5-.3-.8-.7-1-1.2L44.5 81.6c-.2-.5-.1-1.1.2-1.6.3-.5.7-.8 1.2-1L172 42.2c.5-.2 1.1-.1 1.6.2.5.3.8.7 1 1.2l19.7 67.5c.2.5.1 1.1-.2 1.6-.2.4-.7.8-1.2 1zM46.1 79.5c-.4.1-.7.4-1 .8-.2.4-.3.8-.1 1.2L64.7 149c.1.4.4.8.8 1 .4.2.8.3 1.2.1l126.1-36.8c.4-.1.8-.4 1-.8.2-.4.3-.8.1-1.2l-19.7-67.5c-.1-.4-.4-.8-.8-1-.4-.2-.8-.3-1.2-.1L46.1 79.5z" class="st2"/>
    <path d="m160.9 123.3-131.4 3.2c-2 0-3.9-.7-5.4-2.1-1.4-1.4-2.3-3.3-2.3-5.3L20 49c0-2 .7-3.9 2.1-5.4 1.4-1.5 3.3-2.3 5.3-2.3L158.7 38c2 0 3.9.7 5.4 2.1 1.4 1.4 2.3 3.3 2.3 5.3l1.8 70.2c0 2-.7 3.9-2.1 5.4-1.3 1.5-3.2 2.3-5.2 2.3z" class="st2"/>
    <path d="m160.9 123.3-131.4 3.2c-2 0-3.9-.7-5.4-2.1-1.4-1.4-2.3-3.3-2.3-5.3L20 49c0-2 .7-3.9 2.1-5.4 1.4-1.5 3.3-2.3 5.3-2.3L158.7 38c2 0 3.9.7 5.4 2.1 1.4 1.4 2.3 3.3 2.3 5.3l1.8 70.2c0 2-.7 3.9-2.1 5.4-1.3 1.5-3.2 2.3-5.2 2.3zM27.4 41.7c-1.9 0-3.7.8-5 2.2-1.3 1.4-2 3.2-1.9 5.1l1.8 70.3c.1 1.9.8 3.7 2.2 5 1.4 1.3 3.2 2 5.1 2l131.4-3.2c1.9 0 3.7-.8 4.9-2.2 1.3-1.4 2-3.2 1.9-5.1L166 45.4c-.1-1.9-.8-3.7-2.2-5-1.4-1.3-3.2-2-5.1-2L27.4 41.7z" class="st3"/>
    <path d="m160.8 117.9-131.4 3.2c-.5 0-1.1-.2-1.5-.6-.4-.4-.6-.9-.6-1.4l-1.8-70.2c0-.5.2-1.1.6-1.5.4-.4.9-.6 1.4-.6l131.4-3.2c.5 0 1.1.2 1.5.6.4.4.6.9.6 1.4l1.8 70.3c0 .5-.2 1.1-.6 1.5-.4.2-.9.4-1.4.5zM27.5 47.2c-.4 0-.8.2-1.1.5-.3.3-.5.7-.4 1.1l1.8 70.2c0 .4.2.8.5 1.1.3.3.7.5 1.1.4l131.4-3.2c.4 0 .8-.2 1.1-.5.3-.3.5-.7.4-1.1l-1.8-70.2c0-.4-.2-.8-.5-1.1-.3-.3-.7-.5-1.1-.4L27.5 47.2z" class="st1"/>
    <path d="M170.1 135.8 44 172.7c-1.9.6-4 .3-5.7-.6-1.8-1-3.1-2.6-3.6-4.5L15 100.1c-.6-1.9-.3-4 .6-5.7 1-1.8 2.6-3.1 4.5-3.6L146.2 54c1.9-.6 4-.3 5.7.6 1.8 1 3.1 2.6 3.6 4.5l19.7 67.5c.6 1.9.3 4-.6 5.7s-2.6 3-4.5 3.5z" class="st1"/>
    <path d="m134.2 140.1-81.4 23.8c-.1 0-.2.1-.3.1l32.2-33c.6-.6 2.2-1.3 3.6-1.4h1.1l30.1 7 1.4.3 13.3 3.2z" class="st3"/>
    <path d="m159.9 132.6-70.4 20.6 11.8-10.4.8-.8 15.3-13.6c1-.9 3.8-1.7 5.3-1.7h.3l36.9 5.9z" class="st3"/>
    <path d="M20.2 91.1c-1.8.5-3.3 1.8-4.2 3.4-.9 1.6-1.1 3.6-.6 5.4l19.7 67.5c.5 1.8 1.8 3.3 3.4 4.2 1.6.9 3.6 1.1 5.4.6L170 135.4c1.8-.5 3.3-1.8 4.2-3.4.9-1.6 1.1-3.6.6-5.4l-19.7-67.5c-.5-1.8-1.8-3.3-3.4-4.2-1.6-.9-3.6-1.1-5.4-.6L20.2 91.1z" class="st4"/>
    <path d="M168.6 130.5 42.5 167.4c-.5.2-1.1.1-1.6-.2-.5-.3-.8-.7-1-1.2L20.2 98.5c-.2-.5-.1-1.1.2-1.5.3-.5.7-.8 1.2-1l126.1-36.8c.5-.2 1.1-.1 1.6.2.5.3.8.7 1 1.2L170 128c.2.5.1 1.1-.2 1.6-.3.4-.7.8-1.2.9zM21.7 96.4c-.4.1-.7.4-1 .8-.2.4-.3.8-.1 1.2l19.7 67.5c.1.4.4.8.8 1 .4.2.8.3 1.2.1l126.1-36.8c.4-.1.8-.4 1-.8.2-.4.3-.8.1-1.2l-19.7-67.5c-.1-.4-.4-.8-.8-1-.4-.2-.8-.3-1.2-.1L21.7 96.4z" class="st5"/>
    <path d="M123.2 79.7c7.5-2.2 11.8-10.1 9.6-17.6-2.2-7.5-10.1-11.8-17.5-9.6-7.5 2.2-11.8 10.1-9.6 17.6 2.2 7.5 10 11.8 17.5 9.6z" class="st6"/>
    <path d="M139.4 113.9c9.5-2.8 14.4-14.7 10.9-26.6-3.5-11.9-14-19.3-23.5-16.5-9.5 2.8-14.4 14.7-10.9 26.6 3.5 11.9 14 19.3 23.5 16.5z" class="st2"/>
    <path d="m131.9 88 15.2 48.6-1.8.5L131.9 88z" class="st5"/>
    <path d="M144.2 119.5c.1.1.1.2.1.3 0 .1-.1.2-.1.3l-2.1 2-.6-.6 2.1-2c.1-.1.2-.1.3-.1.1 0 .2 0 .3.1z" class="st5"/>
    <path d="M90 128.4c9.5-2.8 14.4-14.7 10.9-26.6-3.5-11.9-14-19.3-23.5-16.5C67.9 88 63 99.9 66.5 111.8c3.4 12 14 19.4 23.5 16.6z" class="st2"/>
    <path d="M95 134.8c-.1-.1-.2-.1-.3-.1-.1 0-.2 0-.3.1l-1.5 1.4-10.5-33.7 13.4 49.1 1.8-.5-4.3-13.9 1.8-1.7c.1-.1.1-.2.1-.3 0-.2-.1-.4-.2-.4z" class="st5"/>
    <path d="M93.8 49.9c12-3.5 28.4 16.3 32.9 31.4 4.4 15.1-1.8 30.2-13.8 33.7-12 3.5-25.4-5.9-29.8-21-4.4-15-1.3-40.6 10.7-44.1z" class="st7"/>
    <path d="M119.2 122.9c-.1-.1-.1-.1-.2-.1h-.4c-.1 0-.1.1-.2.1l-1.8 1.8L103.3 82h-.1l16.9 62.2 2.3-.7-5.5-17.7 2.3-2.2c.1-.1.1-.1.1-.2v-.4l-.1-.1z" class="st4"/>
    <path d="M170.4 135.2 44.3 172.1c-1.9.6-4 .3-5.7-.6-1.8-1-3.1-2.6-3.6-4.5L15.2 99.5c-.6-1.9-.3-4 .6-5.7 1-1.8 2.6-3.1 4.5-3.6l126.1-36.8c1.9-.6 4-.3 5.7.6 1.8 1 3.1 2.6 3.6 4.5l19.7 67.5c.6 1.9.3 4-.6 5.7-.9 1.7-2.5 3-4.4 3.5z" class="st1"/>
    <path d="M134.5 139.5 53 163.3c-.1 0-.2.1-.3.1l32.2-33c.6-.6 2.2-1.3 3.6-1.4h1.1l30.1 7 1.4.3 13.4 3.2z" class="st3"/>
    <path d="m160.2 132-70.4 20.6 11.8-10.4.8-.8 15.3-13.6c1-.9 3.8-1.7 5.3-1.7h.3l36.9 5.9z" class="st3"/>
    <path d="M170.4 135.2 44.3 172.1c-1.9.6-4 .3-5.7-.6-1.8-1-3.1-2.6-3.6-4.5L15.2 99.5c-.6-1.9-.3-4 .6-5.7 1-1.8 2.6-3.1 4.5-3.6l126.1-36.8c1.9-.6 4-.3 5.7.6 1.8 1 3.1 2.6 3.6 4.5l19.7 67.5c.6 1.9.3 4-.6 5.7-.9 1.7-2.5 3-4.4 3.5zM20.5 90.6c-1.8.5-3.3 1.8-4.2 3.4-.9 1.6-1.1 3.6-.6 5.4l19.7 67.5c.5 1.8 1.8 3.3 3.4 4.2 1.6.9 3.6 1.1 5.4.6l126.1-36.8c1.8-.5 3.3-1.8 4.2-3.4.9-1.6 1.1-3.6.6-5.4l-19.7-67.5c-.5-1.8-1.8-3.3-3.4-4.2-1.6-.9-3.6-1.1-5.4-.6L20.5 90.6z" class="st4"/>
    <path d="M168.9 130 42.8 166.8c-.5.2-1.1.1-1.6-.2-.5-.3-.8-.7-1-1.2L20.5 98c-.2-.5-.1-1.1.2-1.6.3-.5.7-.8 1.2-1L148 58.6c.5-.2 1.1-.1 1.6.2.5.3.8.7 1 1.2l19.7 67.5c.2.5.1 1.1-.2 1.6-.3.4-.7.7-1.2.9zM22 95.8c-.4.1-.7.4-1 .8-.2.4-.3.8-.1 1.2l19.7 67.5c.1.4.4.8.8 1 .4.2.8.3 1.2.1l126.1-36.8c.4-.1.7-.4 1-.8.2-.4.3-.8.1-1.2l-19.7-67.5c-.1-.4-.4-.8-.8-1-.4-.2-.8-.3-1.2-.1L22 95.8z" class="st5"/>
    <path d="M123.5 79.1c7.5-2.2 11.8-10.1 9.6-17.6-2.2-7.5-10.1-11.8-17.5-9.6-7.5 2.2-11.8 10.1-9.6 17.6s10 11.8 17.5 9.6z" class="st6"/>
    <path d="M139.7 113.4c9.5-2.8 14.4-14.7 10.9-26.6-3.5-11.9-14-19.3-23.5-16.5-9.5 2.8-14.4 14.7-10.9 26.6 3.5 11.8 14 19.3 23.5 16.5z" class="st2"/>
    <path d="m132.2 87.5 15.2 48.6-1.8.5-13.4-49.1z" class="st5"/>
    <path d="M144.5 118.9c.1.1.1.2.1.3 0 .1-.1.2-.1.3l-2.1 2-.6-.6 2.1-2c.1-.1.2-.1.3-.1.1 0 .3.1.3.1z" class="st5"/>
    <path d="M90.3 127.8c9.5-2.8 14.4-14.7 10.9-26.6-3.5-11.9-14-19.3-23.5-16.5-9.5 2.8-14.4 14.7-10.9 26.6 3.5 11.9 14 19.3 23.5 16.5z" class="st2"/>
    <path d="M95.4 134.2c-.1-.1-.2-.1-.3-.1-.1 0-.2 0-.3.1l-1.5 1.4-10.5-33.7L96.1 151l1.8-.5-4.3-13.9 1.8-1.7c.1-.1.1-.2.1-.3 0-.2-.1-.3-.1-.4z" class="st5"/>
    <path d="M94.1 49.3c12-3.5 28.4 16.3 32.9 31.4 4.4 15.1-1.8 30.2-13.8 33.7-12 3.5-25.4-5.9-29.8-21-4.4-15-1.3-40.5 10.7-44.1z" class="st7"/>
    <path d="M119.5 122.3c-.1-.1-.1-.1-.2-.1h-.4c-.1 0-.1.1-.2.1l-1.8 1.8-13.3-42.7h-.1l16.9 62.2 2.3-.7-5.5-17.7 2.3-2.2c.1-.1.1-.1.1-.2v-.4l-.1-.1z" class="st4"/>
  </g>
</svg>
