<?xml version="1.0" encoding="utf-8"?>
<!-- Generator: Adobe Illustrator 27.5.0, SVG Export Plug-In . SVG Version: 6.00 Build 0)  -->
<svg version="1.1" id="Layer_1" xmlns="http://www.w3.org/2000/svg" xmlns:xlink="http://www.w3.org/1999/xlink" x="0px"
  y="0px" viewBox="0 0 468.8 303" style="enable-background:new 0 0 468.8 303;" xml:space="preserve">
  <style type="text/css">
    .st0 {
      fill: #F2F2F2;
    }

    .st1 {
      fill: #3F3D56;
    }

    .st2 {
      fill: #FFFFFF;
    }

    .st3 {
      fill: #FE4C02;
    }

    .st4 {
      fill: #A0616A;
    }

    .st5 {
      fill: #2F2E41;
    }

    .st6 {
      fill: #E6E6E6;
    }

    .st7 {
      fill: #4CFF89;
    }

    .st8 {
      opacity: 0.4;
      fill: #4CFF89;
      enable-background: new;
    }
  </style>
  <g>
    <path class="st0" d="M42.8,213.7c-2.2,0.2-4.6,0.6-7.2,1.1c-10.8,2.2-11.1,9.6-11,11.2l-0.1,0c-1.1,1.7-1.8,3.5-2.2,5.2l-0.5-22.5
		c0.3-0.7,0.6-1.4,0.9-2.2c0.8,2.5,2.1,4.9,3.3,4.7c1.5-0.2,2.1-4.6,1.9-7.7c1.9,2.4,5.1,5,6.3,4.2c1-0.6,0.4-3.3-0.7-5.7
		c2.2,1.3,4.6,2.2,5.4,1.3c1-1.1-1.4-5-3.7-7.2c3,0.3,6.9-0.2,7.2-1.6c0.2-1.1-2.1-2.6-4.6-3.5c2.5-0.6,4.8-1.8,4.7-2.9
		c-0.1-1.3-3.5-2.2-6.5-2.4c2.2-1.7,4.3-4.2,3.7-5.2c-0.6-1-3.3-0.6-5.7,0.3c1.5-2.1,2.5-4.4,1.7-5.3c-1-1-4.4,0.7-6.8,2.6
		c0.5-3,0.2-6.8-1.1-7.1c-1.1-0.3-2.7,1.9-3.8,4.3c-0.5-2.5-1.5-4.9-2.6-4.9c-1.6,0-2.9,4.8-2.9,8c0,0.2,0,0.3,0,0.5
		c-0.2-0.2-0.3-0.4-0.6-0.6c-2.3-2.2-6.6-4.6-7.8-3.5c-0.8,0.8,0.2,3.2,1.7,5.3c-2.5-0.9-5.2-1.3-5.7-0.3c-0.8,1.3,2.5,4.7,5.2,6.3
		c-0.2,0-0.3,0-0.5,0c-3.1-0.2-8.1,0.8-8.2,2.3c-0.1,1.1,2.2,2.3,4.7,2.9c-2.5,0.9-4.8,2.4-4.6,3.5c0.3,1.4,4.1,1.9,7.2,1.6
		c-2.3,2.2-4.7,6.1-3.7,7.2c0.8,0.8,3.2,0,5.4-1.3c-1.1,2.4-1.6,5.1-0.7,5.7c1.3,0.8,4.8-2.1,6.6-4.7c-0.2,3.1,0.6,7.4,2,7.6
		c0.6,0.1,1.3-0.6,1.9-1.6l-1.7,24.2c-0.4,2.8,2.1,4.7,2.3,5.8l0.4,16.4c-0.4-1.2-1-2.4-1.7-3.6l-0.1,0c0.1-1.7-0.1-9-11-11.2
		c-2.6-0.5-5-0.9-7.2-1.1c-2.6-0.3-3.6,3.3-1.3,4.4c3.4,1.7,6.6,3.8,8.3,6.2c4.3,6.3,10.2,2.7,11,2.1c0.9,1.6,1.5,3.1,1.9,4.6
		l0.2,8.7c0,0.2-0.1,0.3-0.1,0.3l0.1,0l0.5,21.1l4.3,0L26,265.9c0.3-1.2,1.1-5.1,0-9.2l-1.5-16.9l-2-6.7c0.3-2.1,1-4.4,2.3-6.7
		c0.8,0.6,6.7,4.2,11-2.1c1.7-2.5,4.9-4.6,8.3-6.2C46.4,216.9,45.4,213.4,42.8,213.7L42.8,213.7z M23.1,263.6l-0.1-3.7
		C23.2,261.3,23.2,262.5,23.1,263.6z" />
    <path class="st1" d="M295.9,289.3c20.8,0,37.6-16.8,37.6-37.6s-16.9-37.6-37.6-37.6c-20.8,0-37.6,16.8-37.6,37.6
		S275.1,289.3,295.9,289.3z" />
    <path class="st2" d="M295.9,276.7c13.9,0,25.1-11.2,25.1-25.1s-11.2-25.1-25.1-25.1c-13.9,0-25.1,11.2-25.1,25.1
		S282,276.7,295.9,276.7z" />
    <path class="st1" d="M295.9,266c7.9,0,14.3-6.4,14.3-14.3c0-7.9-6.4-14.3-14.3-14.3s-14.3,6.4-14.3,14.3
		C281.6,259.6,288,266,295.9,266z" />
    <path class="st1" d="M78.4,289.3c20.8,0,37.6-16.8,37.6-37.6s-16.9-37.6-37.6-37.6c-20.8,0-37.6,16.8-37.6,37.6
		S57.6,289.3,78.4,289.3z" />
    <path class="st2" d="M78.4,276.7c13.9,0,25.1-11.2,25.1-25.1s-11.2-25.1-25.1-25.1c-13.9,0-25.1,11.2-25.1,25.1
		S64.5,276.7,78.4,276.7z" />
    <path class="st3" d="M347.3,233.8c-4.9-12.3-22-50.1-52.6-62.6c-0.2-0.1-0.5-0.2-0.7-0.2l-97.9-14c-1.6-0.2-3.1,0.9-3.4,2.5
		l-1.7,10.6c-0.1,0.7,0,1.5,0.4,2.1c5,7.7,36.8,60-14.2,60s-65.1-36.5-67.3-42.9c-0.2-0.6-0.2-1.3,0-1.9l15.5-48.9
		c0.3-0.9,0.1-1.8-0.3-2.5l6.8-12.6l12.4,7l6.4,0.1l22,11.5l4.5-7.3L132,112c0,0,0.1-5.2-14.6-9.4l-23-10.4l-2.8,3.5l7,5.6l0.7,4.2
		l4.9,1.4l9.8,18.8l-2.8,5.4l3.4,1.7l-1-0.2c-1.4-0.3-2.8,0.4-3.4,1.7l-15.4,35.2c-0.2,0.5-0.6,1-1.1,1.3l-5.5,3.5
		c-0.5,0.3-0.9,0.8-1.1,1.4l-6.3,15.2c-0.2,0.5-0.3,1-0.2,1.4c-7.8,1.5-30.7,7.9-43.3,33l14.6,11.8c0,0,22.9-14.8,60.9,0.6
		c6.6,10.3,16.2,18.8,30.1,19.6c36.6,2.1,97.2,4.2,104.2-4.2c5.1-6.1,8.7-9.9,10.2-11.5c0.5-0.6,1.3-0.9,2.1-0.9l85.4-2.7
		C346.7,237.8,348.1,235.7,347.3,233.8L347.3,233.8z" />
    <path class="st1" d="M111.8,124.2c6.2,0,11.2-5,11.2-11.1c0-6.2-5-11.1-11.2-11.1c-6.2,0-11.2,5-11.2,11.1
		C100.7,119.2,105.7,124.2,111.8,124.2z" />
    <path class="st1" d="M290.4,171.3c-0.1,0-0.3,0-0.4,0l-93.2-3.6c-4.1-0.2-7.7-2.8-9-6.7l-1.3-3.7c-1-3-0.6-6.3,1.2-8.9
		c1.8-2.6,4.7-4.2,7.9-4.2l96.3-2.2c3-0.1,5.9,1.2,7.8,3.5c1.9,2.3,2.7,5.3,2.2,8.3l-1.8,9.5C299.3,167.9,295.2,171.3,290.4,171.3
		L290.4,171.3z" />
    <path class="st1" d="M78.4,266c7.9,0,14.3-6.4,14.3-14.3c0-7.9-6.4-14.3-14.3-14.3s-14.3,6.4-14.3,14.3
		C64.1,259.6,70.5,266,78.4,266z" />
    <path class="st1" d="M327.9,211c-2.2,0-4.4-1.2-5.5-3.2l-7.1-12.8c-1.1-2-1.1-4.4,0.2-6.4c1.2-2,3.3-3.1,5.6-2.9l12.8,0.7
		c2.4,0.1,4.5,1.6,5.5,3.8l3.7,8.8c0.7,1.6,0.7,3.4,0,5c-0.7,1.6-2,2.8-3.7,3.4l-9.5,3.3C329.3,210.9,328.6,211,327.9,211L327.9,211
		z" />
    <path class="st1"
      d="M165.8,295.9c-0.1,0-0.2,0-0.3,0l-2.8-0.3c-0.9-0.1-1.7-0.6-2.2-1.4c-0.5-0.8-0.5-1.8-0.2-2.6l14.8-35.1
		c0.4-1,1.3-1.6,2.3-1.8c1-0.1,2,0.3,2.6,1.1c0.6,0.8,0.8,1.8,0.5,2.8l-12,35.4C168.2,295.1,167.1,295.9,165.8,295.9L165.8,295.9z" />
    <path class="st4" d="M242.7,50.8c0,0-5.4-10.8-4.3-20.6l-18,9.3l0.7,17.7L242.7,50.8z" />
    <path class="st4"
      d="M231.5,44.5c9,0,16.3-7.3,16.3-16.2S240.5,12,231.5,12s-16.3,7.3-16.3,16.2S222.5,44.5,231.5,44.5z" />
    <path class="st4" d="M248.1,283.4h-9.9l-4.7-38.2h14.6V283.4z" />
    <path class="st5"
      d="M214.1,283.2c-0.3,0.5-0.5,2.2-0.5,2.8c0,1.9,1.5,3.4,3.4,3.4h30.7c1.3,0,2.3-1,2.3-2.3v-1.3
		c0,0,1.5-3.8-1.6-8.6c0,0-3.9,3.7-9.7-2.1L237,272l-12.4,9.1l-6.9,0.8C216.2,282.1,214.9,281.9,214.1,283.2L214.1,283.2z" />
    <path class="st6" d="M218.8,50.8l23.8-3.2l18.4,8.7l1.1,67.1c0,0-45.3,5.4-52.4-1.6c-7.1-7-1.7-63.3-1.7-63.3L218.8,50.8
		L218.8,50.8z" />
    <path class="st5" d="M227.4,32.4H223c0,0-3.8-4.7-3.3-1.8c0.5,2.8-1.5,5.9-1.5,5.9l-3.1-1c0,0-6.1-25.7,12.2-27.1
		c18.4-1.4,22.5,12.9,22.5,12.9s-1,7.1-3.1,5.1c-2-2-13.3-3.1-13.3-3.1L227.4,32.4L227.4,32.4z" />
    <path class="st4" d="M215.9,274.8l-9.5,2.7L191.4,242l14.1-4L215.9,274.8z" />
    <path class="st5" d="M183.1,283.8c-0.2,0.6,0.1,2.2,0.3,2.8c0.5,1.8,2.4,2.8,4.2,2.3l29.6-8.3c1.2-0.3,1.9-1.6,1.6-2.8l-0.3-1.2
		c0,0,0.4-4.1-3.9-7.8c0,0-2.7,4.6-9.9,0.6l-2.5-2.5l-9.5,12.1l-6.4,2.7C184.8,282.2,183.5,282.4,183.1,283.8z" />
    <path class="st5" d="M258.9,116.8l3.2,9.8v33.7l-9.8,101.9h-19l-2.1-72.7l1.7-35.9l-36.3,54.9l16,39.2L195,259.4
		c0,0-26.3-59.8-22.3-65.6c3.9-5.8,39.1-74.2,39.1-74.2S258.9,117.9,258.9,116.8L258.9,116.8z" />
    <path class="st4" d="M268.7,77.8l5.2,8.6c0,0,7.4,29.1,0,29.2c-7.4,0.1-22.3-14.8-22.3-14.8l2-7.8l5.4,2.2l-1.1-17.3H268.7
		L268.7,77.8z" />
    <path class="st6" d="M252.4,56c0,0,17.3-3.1,19,8.3c1.6,11.3,2.5,22.1,2.5,22.1l-18.8,1.6L252.4,56z" />
    <path class="st4" d="M256.2,99.8c1.6-2.2-0.7-6.5-5.1-9.7c-4.4-3.1-9.2-3.9-10.8-1.7s0.7,6.5,5.1,9.7
		C249.8,101.3,254.6,102,256.2,99.8z" />
    <path class="st0" d="M398.9,213.7c-2.2,0.2-4.6,0.6-7.2,1.1c-10.8,2.2-11.1,9.6-11,11.2l-0.1,0c-1.1,1.7-1.8,3.5-2.2,5.2l-0.5-22.5
		c0.3-0.7,0.6-1.4,0.9-2.2c0.8,2.5,2.1,4.9,3.3,4.7c1.5-0.2,2.1-4.6,1.9-7.7c1.9,2.4,5.1,5,6.3,4.2c1-0.6,0.4-3.3-0.7-5.7
		c2.2,1.3,4.6,2.2,5.4,1.3c1-1.1-1.4-5-3.7-7.2c3,0.3,6.9-0.2,7.2-1.6c0.2-1.1-2.1-2.6-4.6-3.5c2.5-0.6,4.8-1.8,4.7-2.9
		c-0.1-1.3-3.5-2.2-6.5-2.4c2.2-1.7,4.3-4.2,3.7-5.2c-0.6-1-3.3-0.6-5.7,0.3c1.5-2.1,2.5-4.4,1.7-5.3c-1-1-4.4,0.7-6.8,2.6
		c0.5-3,0.2-6.8-1.1-7.1c-1.1-0.3-2.7,1.9-3.8,4.3c-0.5-2.5-1.5-4.9-2.6-4.9c-1.6,0-2.9,4.8-2.9,8c0,0.2,0,0.3,0,0.5
		c-0.2-0.2-0.3-0.4-0.6-0.6c-2.3-2.2-6.6-4.6-7.8-3.5c-0.8,0.8,0.2,3.2,1.7,5.3c-2.5-0.9-5.2-1.3-5.7-0.3c-0.8,1.3,2.5,4.7,5.2,6.3
		c-0.2,0-0.3,0-0.5,0c-3.1-0.2-8.1,0.8-8.2,2.3c-0.1,1.1,2.2,2.3,4.7,2.9c-2.5,0.9-4.8,2.4-4.6,3.5c0.3,1.4,4.1,1.9,7.2,1.6
		c-2.3,2.2-4.7,6.1-3.7,7.2c0.8,0.8,3.2,0,5.4-1.3c-1.1,2.4-1.6,5.1-0.7,5.7c1.3,0.8,4.8-2.1,6.6-4.7c-0.2,3.1,0.6,7.4,2,7.6
		c0.6,0.1,1.3-0.6,1.9-1.6l-1.7,24.2c-0.4,2.8,2.1,4.7,2.3,5.8l0.4,16.4c-0.4-1.2-1-2.4-1.7-3.6l-0.1,0c0.1-1.7-0.1-9-11-11.2
		c-2.6-0.5-5-0.9-7.2-1.1c-2.6-0.3-3.6,3.3-1.3,4.4c3.4,1.7,6.6,3.8,8.3,6.2c4.3,6.3,10.2,2.7,11,2.1c0.9,1.6,1.5,3.1,1.9,4.6
		l0.2,8.7c0,0.2-0.1,0.3-0.1,0.3l0.1,0l0.5,21.1l4.3,0l-1.5-21.6c0.3-1.2,1.1-5.1,0-9.2l-1.5-16.9l-2-6.7c0.3-2.1,1-4.4,2.3-6.7
		c0.8,0.6,6.7,4.2,11-2.1c1.7-2.5,4.9-4.6,8.3-6.2C402.6,216.9,401.6,213.4,398.9,213.7L398.9,213.7z M379.3,263.6l-0.1-3.7
		C379.3,261.3,379.3,262.5,379.3,263.6z" />
    <path class="st4" d="M348.8,284.9l7.5-1.6l-2.7-29.6l-11,2.4L348.8,284.9z" />
    <path class="st5" d="M374.4,279.2c0.3,0.3,0.7,1.6,0.8,2c0.3,1.4-0.6,2.8-2,3.1l-23.2,5c-1,0.2-1.9-0.4-2.1-1.4l-0.2-1
		c0,0-1.8-2.7-0.2-6.7c0,0,3.5,2.2,7-3.2l0.8-2.6l10.8,4.8l5.3-0.5C372.6,278.7,373.6,278.4,374.4,279.2L374.4,279.2z" />
    <path class="st4" d="M362.2,282.7l6.2-4.4L354.3,252l-9.2,6.5L362.2,282.7z" />
    <path class="st5"
      d="M383.5,267.3c0.4,0.2,1.3,1.2,1.5,1.6c0.8,1.2,0.6,2.8-0.6,3.6l-19.3,13.7c-0.8,0.6-1.9,0.4-2.5-0.4L362,285
		c0,0-2.7-1.7-2.8-6.1c0,0,4.1,0.6,5.2-5.7l-0.3-2.7l11.9,0.2l4.7-2.5C381.7,267.6,382.4,266.9,383.5,267.3L383.5,267.3z" />
    <path class="st5" d="M272.2,136.1c0,0-11.6,15.8,11.6,33.6l47.6-15.2l-17-35.4l-15-8.2L272.2,136.1L272.2,136.1z" />
    <path class="st5" d="M331.4,154.6l18.4,35.9l11.7,74.7l-14.6,1l-14.6-70.8L306.6,157l18-8.2" />
    <path class="st5" d="M283.8,158.5v11.3l33,36.2c0,0,0,27.2,12.6,39.8l14.6,22.3l12.6-6.8l-18.4-65l-33-42.7L283.8,158.5
		L283.8,158.5z" />
    <path class="st4" d="M307.3,46.7l-6.2,23.7l-23.7-4.7c0,0,16.5-17,14.2-24.8L307.3,46.7L307.3,46.7z" />
    <path class="st7" d="M289.2,50.3l14.6,6.8c0,0,7.5,4.6,7.6,7.6c0.1,3.1-0.8,17.6-0.8,17.6s5.8,5.8,1.9,17.5l1.9,19.4l-43.7,23.3
		l3.9-40.7l-1.9-37.8L289.2,50.3L289.2,50.3z" />
    <path class="st4" d="M276.1,160.7c1.7,3.9,5.1,6.2,7.6,5.1c2.5-1.1,3.1-5.1,1.4-9c-0.7-1.6-1.7-3-3-4.1l-7.4-16.5l-7.7,3.7
		l8.1,15.9C275.1,157.4,275.4,159.1,276.1,160.7z" />
    <path class="st7" d="M283.8,66.3c0,0-10.7-6.8-14.6,1c-3.9,7.8-12.6,47.5-12.6,47.5l12.6,37.8l11.6-4.8l-10.2-40.7L283.8,66.3
		L283.8,66.3z" />
    <path class="st4" d="M338.6,154.6c3,3,7,3.9,9,2s1-5.9-2-8.9c-1.2-1.2-2.7-2.1-4.3-2.7l-13-12.6l-5.8,6.2l13.4,11.7
		C336.4,151.9,337.3,153.4,338.6,154.6L338.6,154.6z" />
    <path class="st7"
      d="M310.9,64c0,0-18.6-0.8-19.4,7.9c-0.7,8.6,12,47.2,12,47.2l25.7,30.5l9-8.8l-24.5-34.1L310.9,64L310.9,64z" />
    <path class="st2"
      d="M256.4,134l-15.6-47.2c-12.6-11.1-26.2,15.6-62.8,0.5l11.5,53.4C217.3,125.7,241.1,119.9,256.4,134z" />
    <path class="st1"
      d="M189.6,142.1c-0.1,0-0.2,0-0.3-0.1c-0.2-0.1-0.3-0.3-0.4-0.5l-11.5-53.4c-0.1-0.3,0-0.5,0.2-0.7
		c0.2-0.2,0.5-0.2,0.7-0.1c20.8,8.6,34.2,3.5,44-0.3c7.5-2.8,13.3-5.1,19-0.1c0.1,0.1,0.2,0.2,0.2,0.3l15.6,47.2
		c0.1,0.3,0,0.6-0.3,0.8c-0.3,0.2-0.6,0.1-0.9-0.1c-13.5-12.4-34.5-10.3-66.1,6.8C189.8,142,189.7,142.1,189.6,142.1L189.6,142.1z
		 M179,89.2l11,51.2c30.3-16.2,51-18.7,64.9-7.8l-14.7-44.6c-5-4.3-10.2-2.3-17.4,0.5C213,92.2,199.6,97.3,179,89.2L179,89.2z" />
    <path class="st4"
      d="M202.2,64.4l-9.8,2c0,0-26.3,14.5-21.3,19.9c5,5.5,26.1,6.2,26.1,6.2l4.4-6.7l-5.3-2.5l13.4-11L202.2,64.4z" />
    <path class="st6"
      d="M229.2,61.3c0,0-9.6-14.7-19-8.2c-9.4,6.6-17.9,13.2-17.9,13.2L204,81.2L229.2,61.3L229.2,61.3z" />
    <path class="st4" d="M213.8,92.4c0.5-2.6-3.3-5.7-8.6-6.7c-5.3-1.1-10,0.2-10.6,2.9c-0.5,2.6,3.3,5.7,8.6,6.7
		C208.5,96.3,213.3,95,213.8,92.4z" />
    <path class="st1" d="M395.6,293.9c3.2,0,5.9-2.6,5.9-5.9c0-3.2-2.6-5.9-5.9-5.9c-3.2,0-5.9,2.6-5.9,5.9
		C389.7,291.3,392.3,293.9,395.6,293.9z" />
    <path class="st1"
      d="M403.4,303c3.2,0,5.9-2.6,5.9-5.9c0-3.2-2.6-5.9-5.9-5.9s-5.9,2.6-5.9,5.9C397.5,300.4,400.2,303,403.4,303z" />
    <path class="st1" d="M462.2,303c3.2,0,5.9-2.6,5.9-5.9c0-3.2-2.6-5.9-5.9-5.9c-3.2,0-5.9,2.6-5.9,5.9
		C456.3,300.4,459,303,462.2,303z" />
    <path class="st1" d="M412,209.2v-63.8c0-7.1,6-8.9,13.1-8.9c3.5,0,5.2-0.4,7.7,2.1c2.5,2.5,5.2,3.5,5.1,7l-1,62.6L412,209.2
		L412,209.2z M425.9,140.6c-6.4,0-12.4-1.6-12.4,4.7v62.4l22.1-0.9l1-61.3c0-3.1-5-2.7-7.2-4.9C427.2,138.4,429,140.6,425.9,140.6
		L425.9,140.6z" />
    <path class="st6" d="M394.5,208.4l-0.9,69.7c0,0.9,0.2,1.8,0.6,2.6l6.6,12.4c1,1.8,2.9,2.9,5,2.8l57.9-2.5c3-0.1,5.3-2.6,5.1-5.6
		l-3.6-79.6c-0.1-2.9-2.5-5.1-5.4-5.1h-60C396.9,203.1,394.6,205.5,394.5,208.4L394.5,208.4z" />
    <path class="st1" d="M417.3,239.9l-1.4-0.1l0.5-10.3c0.3-5.6,4.9-10,10.4-10.1l24.7-0.6c5-0.1,9.1,3.7,9.4,8.7l0.5,9.4l-1.4,0.1
		l-0.5-9.4c-0.2-4.2-3.8-7.4-8-7.3l-24.7,0.6c-4.8,0.1-8.8,4-9.1,8.8L417.3,239.9L417.3,239.9z" />
    <path class="st1" d="M416.4,289.8l-1.4-0.1l3-29.3c0.6-5.4,5.1-9.7,10.5-9.9l24-1.1c3-0.1,5.9,0.9,8.1,3c2.2,2.1,3.4,4.9,3.5,7.9
		l0.3,25.5l-1.4,0l-0.3-25.5c0-2.6-1.1-5.1-3-6.9c-1.9-1.8-4.5-2.8-7.1-2.6l-24,1.1c-4.8,0.2-8.7,3.9-9.2,8.7L416.4,289.8
		L416.4,289.8z" />
    <path class="st1" d="M405.6,287.8l-1.4,0l0.9-66.9c0.1-4.6,3.7-8.3,8.3-8.4l47.4-1.4l0,1.4l-47.4,1.4c-3.8,0.1-6.9,3.2-6.9,7
		L405.6,287.8L405.6,287.8z" />
    <path class="st1" d="M405.7,278.3h-1v-61c0-1.9-1.6-3.5-3.5-3.5h-5.4v-1.4h5.4c2.6,0,4.7,2,4.9,4.5c0,0.1,0,0.3,0,0.4v28.9
		L405.7,278.3z" />
    <path class="st4"
      d="M317.4,34.1c0,8.9-7.2,16.2-16.2,16.2S285,43,285,34.1s7.2-16.2,16.2-16.2S317.4,25.1,317.4,34.1z" />
    <path class="st5" d="M299.9,12.3c0.5,0.3,1.1-0.1,1.2-0.7c0.2-0.5,0-1.1-0.2-1.6c-0.3-0.9-0.6-1.7-0.9-2.6
		c-0.6-1.8-1.3-3.7-2.6-5.1c-2-2.1-5.2-2.6-8.1-2.2c-3.7,0.5-7.4,2.5-9.1,5.8c-1.7,3.3-1,8,2.1,10c-4.5,5.1-6,10.8-5.8,17.5
		c0.2,6.8,7.6,13,12.4,17.7c1.1-0.6,2-3.7,1.5-4.8c-0.6-1.1,0.3-2.4-0.5-3.4c-0.7-1-1.3,0.6-0.6-0.4c0.5-0.6-1.4-2.1-0.7-2.5
		c3.4-1.9,4.5-6,6.6-9.2c2.5-3.9,6.9-6.5,11.5-6.9c2.5-0.2,5.2,0.2,7.3,1.7c2.1,1.5,3.4,4.1,2.9,6.6c1.2-1.3,1.9-3.1,1.6-4.9
		c-0.2-1.8-1.3-3.4-2.9-4.3c0.9-3.1,0.1-6.6-2-9c-2.2-2.4-11-2-14.1-1.4L299.9,12.3L299.9,12.3z" />
    <path class="st5" d="M299.4,24.1c-4.2,0.5-7.2,4.1-9.8,7.4c-1.5,1.9-3,4.1-3,6.5c0,2.5,1.7,4.6,2.5,6.9c1.3,3.8,0,8.3-3,10.9
		c3,0.6,6.3-1.7,6.8-4.7c0.6-3.5-2.1-6.9-1.7-10.5c0.3-3.1,2.8-5.5,4.9-7.9c2.1-2.3,4.1-5.5,3.1-8.4L299.4,24.1z" />
    <path class="st8"
      d="M310.9,92.7c8.3,0,15-6.6,15-14.8s-6.7-14.8-15-14.8c-8.3,0-15,6.6-15,14.8S302.7,92.7,310.9,92.7z" />
    <path class="st7" d="M93.3,44.1C93.3,31,82.8,20.4,69.8,20.4c-12.9,0.1-23.4,10.7-23.3,23.9C46.5,57.4,57.1,68,70,68
		C82.9,67.9,93.4,57.2,93.3,44.1z" />
    <path class="st8" d="M54.9,14.7c-7.4-1.2-14.3,3.9-15.4,11.4c-1.2,7.5,3.9,14.5,11.2,15.6c7.4,1.2,14.3-3.9,15.4-11.4
		C67.2,22.9,62.2,15.9,54.9,14.7z" />
  </g>
</svg>